<svg xmlns="http://www.w3.org/2000/svg">
<defs>
<font id="DKJambo" horiz-adv-x="575" >
  <font-face 
    font-family="DKJambo"
    font-weight="400"
    font-stretch="normal"
    units-per-em="1000"
    panose-1="2 0 0 0 0 0 0 0 0 0"
    ascent="800"
    descent="-200"
    x-height="536"
    cap-height="720"
    bbox="-201 -400 1228 1028"
    underline-thickness="50"
    underline-position="-150"
    unicode-range="U+0020-20AC"
  />
<missing-glyph horiz-adv-x="800" 
d="M697 -3v4q-6 0 -93 6t-186.5 7t-316.5 -9l-71 -4q0 6 1 23t3 62t4 123.5t3 241.5t1 383l46 -3q49 0 621 -1l61 -4q-15 -237 -16.5 -441.5t4.5 -294.5t10 -89zM101 795q-29 -488 -6 -753q68 0 604 -2q9 175 10 750q-59 1 -608 5zM101 416q2 52 25 91t60 39q31 0 49 -25
q0 12 -1 45.5t-1 59.5h53q-19 -157 -20.5 -239.5t8.5 -115.5l-50 -5l2 20q-21 -19 -44 -19q-1 0 -8 0.5t-8 0.5q-32 13 -49 50.5t-17 84.5q0 9 1 13zM557 256l-63 1q15 157 15.5 260t-4.5 134t-16 62l-3 10l71 -33q-6 -81 -4 -139q22 22 46 22q30 0 49.5 -15t28 -37
t11 -57.5t1 -65t-4 -71.5t-2.5 -66v-10l-79 9l3 14q79 259 -6 259q-27 0 -41 -21.5t-15.5 -58t1 -70.5t7.5 -73.5t5 -53.5zM450 245l-8 36q-52 -60 -99 -21.5t-47 131.5q0 123 -13 142q72 10 72 9q0 -14 -5 -48.5t-8.5 -66t-3 -63.5t12.5 -51t37 -19q29 0 41 31t7.5 76
t-12 83.5t-16.5 64.5q31 8 70 8v-15q-11 -144 8 -291zM145 422q-2 -44 7 -82t37 -38t35 85q2 42 -6 81.5t-34 39.5q-36 0 -39 -86zM222 148q0 23 15.5 41.5t38.5 18.5q20 0 32 -14t12 -34q0 -35 -32 -46l-7 -2q-7 -3 -9 -3q-32 0 -45 24q-5 12 -5 15zM344 148
q0 23 15.5 41.5t38.5 18.5q20 0 32 -14t12 -34q0 -35 -32 -46l-7 -2q-7 -3 -9 -3q-32 0 -45 24q-5 12 -5 15zM476 150q0 23 15.5 41.5t38.5 18.5q20 0 32 -14t12 -34q0 -35 -32 -46l-7 -2q-7 -3 -9 -3q-32 0 -45 24q-5 13 -5 15z" />
    <glyph glyph-name=".notdef" horiz-adv-x="800" 
d="M697 -3v4q-6 0 -93 6t-186.5 7t-316.5 -9l-71 -4q0 6 1 23t3 62t4 123.5t3 241.5t1 383l46 -3q49 0 621 -1l61 -4q-15 -237 -16.5 -441.5t4.5 -294.5t10 -89zM101 795q-29 -488 -6 -753q68 0 604 -2q9 175 10 750q-59 1 -608 5zM101 416q2 52 25 91t60 39q31 0 49 -25
q0 12 -1 45.5t-1 59.5h53q-19 -157 -20.5 -239.5t8.5 -115.5l-50 -5l2 20q-21 -19 -44 -19q-1 0 -8 0.5t-8 0.5q-32 13 -49 50.5t-17 84.5q0 9 1 13zM557 256l-63 1q15 157 15.5 260t-4.5 134t-16 62l-3 10l71 -33q-6 -81 -4 -139q22 22 46 22q30 0 49.5 -15t28 -37
t11 -57.5t1 -65t-4 -71.5t-2.5 -66v-10l-79 9l3 14q79 259 -6 259q-27 0 -41 -21.5t-15.5 -58t1 -70.5t7.5 -73.5t5 -53.5zM450 245l-8 36q-52 -60 -99 -21.5t-47 131.5q0 123 -13 142q72 10 72 9q0 -14 -5 -48.5t-8.5 -66t-3 -63.5t12.5 -51t37 -19q29 0 41 31t7.5 76
t-12 83.5t-16.5 64.5q31 8 70 8v-15q-11 -144 8 -291zM145 422q-2 -44 7 -82t37 -38t35 85q2 42 -6 81.5t-34 39.5q-36 0 -39 -86zM222 148q0 23 15.5 41.5t38.5 18.5q20 0 32 -14t12 -34q0 -35 -32 -46l-7 -2q-7 -3 -9 -3q-32 0 -45 24q-5 12 -5 15zM344 148
q0 23 15.5 41.5t38.5 18.5q20 0 32 -14t12 -34q0 -35 -32 -46l-7 -2q-7 -3 -9 -3q-32 0 -45 24q-5 12 -5 15zM476 150q0 23 15.5 41.5t38.5 18.5q20 0 32 -14t12 -34q0 -35 -32 -46l-7 -2q-7 -3 -9 -3q-32 0 -45 24q-5 13 -5 15z" />
    <glyph glyph-name=".null" horiz-adv-x="0" 
 />
    <glyph glyph-name="nonmarkingreturn" horiz-adv-x="333" 
 />
    <glyph glyph-name="space" unicode=" " horiz-adv-x="300" 
 />
    <glyph glyph-name="exclam" unicode="!" horiz-adv-x="208" 
d="M98 -10q-12 0 -25 16t-13 35q0 25 11.5 48.5t28.5 23.5q14 0 27 -18.5t13 -39.5t-14 -43t-28 -22zM65 197l-28 544q-7 49 -7 86q0 15 15 15q11 0 50 -1t52 -1q7 0 16 -3q15 -2 15 -14q-56 -583 -56 -626q0 -21 -4.5 -28t-18.5 -7q-34 0 -34 35z" />
    <glyph glyph-name="quotedbl" unicode="&#x22;" horiz-adv-x="302" 
d="M234 547l-46 3q3 15 -1.5 166.5t-8.5 151.5q3 0 45 -4.5t48 -4.5q1 -1 1 -3q0 -12 -19 -143t-19 -159v-7zM86 543l-46 3q3 15 -1.5 166.5t-8.5 151.5q3 0 45 -4.5t48 -4.5q1 -1 1 -3q0 -12 -19 -143t-19 -159v-7z" />
    <glyph glyph-name="dollar" unicode="$" horiz-adv-x="591" 
d="M212 -49l-49 9q8 6 27 78q-66 13 -113 50.5t-47 96.5q0 46 29.5 74.5t76.5 28.5q26 0 56 -12t44 -33l22 111l-17 5l-52.5 15t-45 17.5t-40.5 25.5t-24 35t-11 50q0 57 22 100.5t60 68.5t82.5 37.5t94.5 12.5l17 93l75 -6l-23 -95q55 -12 94 -37t39 -63q0 -42 -26 -70.5
t-68 -28.5q-24 0 -44 12t-20 34q0 12 12 29.5t12 28.5q0 12 -17 21l-42 -176l19 -5q36 -8 55.5 -13.5t50 -18.5t47.5 -28.5t32 -41.5t19 -59q2 -16 2 -25q0 -72 -52.5 -128.5t-124 -83t-143.5 -26.5h-9zM426 196q0 59 -31.5 91.5t-88.5 52.5l-62 -256q15 -4 34 -4
q57 0 102.5 31t45.5 85zM206 574q0 -66 76 -95q21 108 32 174h-5q-42 0 -72.5 -19.5t-30.5 -59.5zM168 165q0 -38 37 -63q1 4 14 61q-23 -13 -51 2z" />
    <glyph glyph-name="quotesingle" unicode="'" horiz-adv-x="154" 
d="M86 547l-46 3q3 15 -1.5 166.5t-8.5 151.5q3 0 45 -4.5t48 -4.5q1 -1 1 -3q0 -12 -19 -143t-19 -159v-7z" />
    <glyph glyph-name="parenleft" unicode="(" horiz-adv-x="259" 
d="M30 374q0 48 6 105t20.5 126t47 114t77.5 45q22 0 22 -17q0 -15 -24.5 -29t-28.5 -26q-38 -105 -38 -319q0 -20 -2 -64t-2.5 -72t4 -67t15.5 -63t35 -45t59 -27q20 -4 -10 -21q-20 -11 -30 -11q-39 0 -80 52q-44 55 -57.5 132.5t-13.5 186.5z" />
    <glyph glyph-name="parenright" unicode=")" horiz-adv-x="259" 
d="M229 374q0 -109 -13.5 -186.5t-57.5 -132.5q-41 -52 -80 -52q-16 0 -38 16q-18 13 -2 16q35 6 59 27t35 45t15.5 63t4 67t-2.5 72t-2 64q0 214 -38 319q-4 12 -28.5 26t-24.5 29q0 17 22 17q45 0 77.5 -45t47 -114t20.5 -126t6 -105z" />
    <glyph glyph-name="comma" unicode="," horiz-adv-x="211" 
d="M47 -67q0 4 1 5q12 9 28.5 13t27 11.5t17.5 30.5q-22 -10 -33 -10q-24 0 -41 18.5t-17 42.5q0 25 21.5 47.5t47.5 22.5q82 0 82 -93q0 -40 -37.5 -67.5t-80.5 -27.5h-2q-14 0 -14 7z" />
    <glyph glyph-name="hyphen" unicode="-" horiz-adv-x="489" 
d="M37 285l-7 117q1 -17 96 -21t196.5 2t130.5 14l6 -111q-257 30 -417 0h-3z" />
    <glyph glyph-name="period" unicode="." horiz-adv-x="197" 
d="M30 40q0 29 22 51.5t53 22.5q27 0 44.5 -17t17.5 -42q0 -20 -12.5 -35.5t-32.5 -21.5q-14 -7 -19 -7h-4q-43 0 -62 30q-7 14 -7 19z" />
    <glyph glyph-name="slash" unicode="/" horiz-adv-x="308" 
d="M161 677q15 97 15 111l6 12h2q3 0 7 -1t7 -1q11 0 34.5 1t35.5 1h6q4 -2 4 -7q0 -8 -7 -25t-7 -18q-11 -32 -19 -69t-17.5 -89t-15.5 -81q-4 -21 -63 -465q0 -9 1.5 -26.5t1.5 -25.5h-122q4 12 7.5 27.5t11 60t19 106.5t36.5 194t57 295z" />
    <glyph glyph-name="zero" unicode="0" horiz-adv-x="531" 
d="M34 269q0 3 -2 20.5t-2 20.5q1 100 31.5 204t92.5 159q76 62 139 52.5t108.5 -65t70.5 -120t27 -112.5q1 -7 1 -22q0 -47 -4.5 -94t-19.5 -103t-38.5 -99t-65.5 -74t-97 -36q-44 -5 -97 18q-32 14 -61 52q-68 83 -83 199zM260 666q-51 -6 -84 -68t-38.5 -147t6 -169
t50.5 -142.5t94 -58.5q100 0 86 360q-4 220 -114 225z" />
    <glyph glyph-name="one" unicode="1" horiz-adv-x="404" 
d="M192 2v3q11 36 21.5 125.5t38.5 401.5q6 40 -4 40q-8 0 -45 -44q-65 -75 -102 -83q-25 -5 -44 12q-27 23 -27 82q0 50 21.5 81t63.5 31h17q34 -13 48 -36.5t14 -64.5q5 0 15.5 26.5t22.5 63.5t13 40q7 23 7 75q4 9 10 9q14 0 37 2t38 2q8 0 8 -11l-1 -4q0 -58 -11 -167.5
t-13 -147.5v-25q57 -406 52 -408q-32 2 -85 -4t-79 -6h-12q-4 1 -4 7z" />
    <glyph glyph-name="two" unicode="2" horiz-adv-x="616" 
d="M92 50q0 126 64 230q25 41 62 85q52 66 111 131q55 64 55 130q0 40 -41 70t-83 30q-37 0 -64.5 -8t-50 -28t-37 -38t-38.5 -54q-11 -22 -11 -33q47 52 89 52q39 0 60.5 -34.5t21.5 -74.5q0 -30 -18.5 -58.5t-46.5 -36.5q-9 -3 -35 -3q-44 0 -72 37.5t-28 88.5q0 40 19 88
q22 58 54 95.5t86 60.5q59 27 114.5 23t98 -29.5t68.5 -76.5t26 -118q0 -56 -25.5 -109t-67.5 -97.5t-85.5 -85t-89.5 -87t-70 -87.5l-1 -1q-6 -10 -6 -18q32 33 69.5 45t93.5 12q35 0 67 -16.5t59 -33t51 -16.5q12 0 26 14q22 28 22 91q0 9 -4 23.5t-4 19.5q0 6 5.5 10
t11.5 4q15 0 26.5 -51.5t11.5 -73.5q0 -62 -36 -92.5t-98 -30.5q-27 0 -51 3q-22 3 -75 18t-86 15q-38 0 -94 -28q-2 -1 -9 -6.5t-13.5 -9.5t-10.5 -4q-21 0 -21 63z" />
    <glyph glyph-name="three" unicode="3" horiz-adv-x="531" 
d="M30 209q0 20 8 63t21 43q11 0 22.5 -3t23 -16.5t11.5 -35.5q0 -12 -1.5 -34t-1.5 -33q0 -76 30.5 -114t99.5 -38q43 0 74 34.5t44 78.5t13 89q0 51 -26 91t-70 58q-18 5 -18 60v10q0 13 27.5 34t55 49t27.5 59v8l-1 6q-3 51 -41 73.5t-91 22.5q-33 0 -73.5 -30t-46.5 -63
q0 -1 2 -3h5q32 0 52.5 -28.5t20.5 -64.5q0 -29 -20 -54.5t-46 -25.5q-68 0 -85 45q-21 57 6 119q25 57 68.5 99t97.5 61q21 8 58 8q77 0 140 -47.5t63 -124.5q0 -66 -78 -134q-3 -2 -13.5 -7.5t-13.5 -11.5q127 -47 127 -182q0 -34 -24 -90q-35 -80 -96.5 -133t-136.5 -53
q-94 0 -154 58t-60 157z" />
    <glyph glyph-name="four" unicode="4" horiz-adv-x="549" 
d="M260 0l1 2q3 12 12 41.5t12 45.5q28 121 28 239q0 32 -3 47q0 2 -2 2q-1 0 -6 1h-5q-43 0 -128.5 -8t-130.5 -10q-8 0 -8 12q0 9 10 40t26 73t35.5 90.5t39 95t35 84.5t25.5 61t9 23q18 0 28 -10.5t11.5 -26t-1.5 -32.5t-9 -32q-85 -200 -160 -338q100 0 231 35q1 3 1 21
q0 16 -5.5 48t-5.5 49q0 9 3 9h190q4 0 4 -7q0 -4 -1 -5q-35 -68 -35 -111q2 0 15.5 -1t16.5 -1q26 0 26 -11v-32q0 -3 -3 -6t-5 -3l-61 -5q-2 -2 -2 -3q-3 -3 -3 -12l-18 -308q0 -2 2.5 -18t2.5 -17v-6q0 -13 -7 -14l-148 -12q-17 0 -17 10z" />
    <glyph glyph-name="five" unicode="5" horiz-adv-x="532" 
d="M30 159q0 49 30 73.5t79 24.5q61 0 84 -80q6 -24 1.5 -41t-15.5 -30.5t-22.5 -21.5t-20.5 -13l-9 -5q0 -9 57 -9q33 0 50 2q28 6 48 27.5t29 52.5t13 59.5t4 57.5q0 53 -24.5 87.5t-74.5 34.5q-72 0 -153 -26q-2 0 -6.5 -0.5t-5.5 -0.5q-12 0 -12.5 14.5t4.5 36t5 24.5
q5 39 -9 187.5t-14 171.5q0 13 20 13q56 -9 148 -9q70 0 163 16q5 1 27 8t40 11.5t26 4.5q5 0 8 -3q0 -5 -30 -146t-30 -154h-45q-14 0 -14 40q0 10 1 29.5t1 30.5q0 5 -1 33t-1 34l-5 11q-7 0 -18 -4t-14 -5l-16 -3q-100 -16 -153 -2q-24 8 -26 8q-4 0 -4 -6q0 -7 -5 -86
t-8.5 -150.5t-0.5 -71.5q53 45 118 62t121 5t94 -62t38 -130q0 -49 -37 -123q-41 -78 -102.5 -108t-153.5 -30q-74 0 -126.5 43t-52.5 118z" />
    <glyph glyph-name="six" unicode="6" horiz-adv-x="532" 
d="M30 362q0 89 34 188.5t99.5 174t141.5 74.5q118 0 173 -122q0 -3 9 -21q1 -4 3 -6q1 -1 1 -5q0 -13 -27.5 -24.5t-40.5 -11.5q-9 0 -16.5 3t-13.5 10t-9.5 12t-10 16.5t-9.5 16.5q-33 54 -83 54q-52 -5 -91.5 -43.5t-61 -96.5t-32 -117t-11.5 -119v-13q0 -28 5 -42
q21 90 87 152.5t144 63.5q31 0 68 -16q113 -53 113 -242q0 -36 -16 -88q-31 -72 -78.5 -112.5t-97.5 -46t-100.5 16.5t-90 66.5t-64.5 112.5t-25 146v19zM162 340q-21 -34 -24 -80t10.5 -87.5t46.5 -70.5t78 -29q2 0 6.5 0.5t6.5 0.5q92 0 92 167q0 177 -80 177
q-31 0 -75 -25t-61 -53z" />
    <glyph glyph-name="seven" unicode="7" horiz-adv-x="534" 
d="M369 4l-191 1q0 8 8 18.5t9 13.5q79 204 132 457q14 68 14 180q-33 -21 -107 -21t-134 87q-11 -59 -22 -138q-4 -14 -9 -80q-2 -11 -11 -11q-26 0 -26 23v5q11 28 13 62.5t-2 62t-8.5 64.5t-4.5 61q0 10 8 10q39 0 117.5 -21t119.5 -21q57 0 221 34q8 0 8 -10v-4
q-71 -143 -92 -244q-47 -201 -47 -399q0 -20 2 -60.5t2 -59.5v-10z" />
    <glyph glyph-name="eight" unicode="8" horiz-adv-x="490" 
d="M30 215q0 73 33.5 152t83.5 127q-40 43 -40 109q0 105 83 162q70 49 148 34q80 -16 106 -92q10 -28 10 -63q0 -64 -9.5 -95.5t-53.5 -80.5q-1 -1 6.5 -12.5t16.5 -24t10 -14.5q21 -39 28.5 -71.5t7.5 -81.5q0 -105 -55 -180t-146 -82h-9q-124 0 -174 60q-28 33 -37 65
t-9 88zM234 427q-108 -36 -112 -146q-3 -86 50 -164q47 -68 95 -66q62 2 79 129q6 41 6 94q0 27 -1.5 47t-6 41.5t-12.5 34t-21 24t-32 11t-45 -4.5zM394 638q-3 37 -37 55.5t-75 18.5q-18 0 -45.5 -23t-46.5 -54t-7.5 -67.5t62.5 -59.5q17 -8 34 -12t39 -2.5t38 13t27.5 41
t11.5 74.5q0 2 -0.5 8t-0.5 8z" />
    <glyph glyph-name="nine" unicode="9" horiz-adv-x="532" 
d="M502 437q0 -89 -34 -188.5t-99.5 -174t-141.5 -74.5q-118 0 -173 122q0 3 -9 21q-1 4 -3 6q-1 1 -1 5q0 13 27.5 24.5t40.5 11.5q9 0 16.5 -3t13.5 -10t9.5 -12t10 -16.5t9.5 -16.5q33 -54 83 -54q52 5 91.5 43.5t61 96.5t32 117t11.5 119v13q0 28 -5 42
q-21 -90 -87 -152.5t-144 -63.5q-31 0 -68 16q-113 53 -113 242q0 36 16 88q31 72 78.5 112.5t97.5 46t100.5 -16.5t90 -66.5t64.5 -112.5t25 -146v-19zM370 459q21 34 24 80t-10.5 87.5t-46.5 70.5t-78 29q-2 0 -6.5 -0.5t-6.5 -0.5q-92 0 -92 -167q0 -177 80 -177
q31 0 75 25t61 53z" />
    <glyph glyph-name="colon" unicode=":" horiz-adv-x="197" 
d="M30 504q0 29 22 51.5t53 22.5q27 0 44.5 -17t17.5 -42q0 -20 -12.5 -35.5t-32.5 -21.5q-14 -7 -19 -7h-4q-43 0 -62 30q-7 14 -7 19zM30 40q0 29 22 51.5t53 22.5q27 0 44.5 -17t17.5 -42q0 -20 -12.5 -35.5t-32.5 -21.5q-14 -7 -19 -7h-4q-43 0 -62 30q-7 14 -7 19z" />
    <glyph glyph-name="semicolon" unicode=";" horiz-adv-x="197" 
d="M30 504q0 29 22 51.5t53 22.5q27 0 44.5 -17t17.5 -42q0 -20 -12.5 -35.5t-32.5 -21.5q-14 -7 -19 -7h-4q-43 0 -62 30q-7 14 -7 19zM47 -67q0 4 1 5q12 9 28.5 13t27 11.5t17.5 30.5q-22 -10 -33 -10q-24 0 -41 18.5t-17 42.5q0 25 21.5 47.5t47.5 22.5q82 0 82 -93
q0 -40 -37.5 -67.5t-80.5 -27.5h-2q-14 0 -14 7z" />
    <glyph glyph-name="equal" unicode="=" horiz-adv-x="558" 
d="M30 169l1 91q0 -5 26.5 -8t69.5 -4.5t93.5 -1.5t103.5 0.5t95 1.5t72 1.5t31 0.5l-7 -82q-110 10 -214 10.5t-183.5 -4t-82.5 -4.5h-3zM36 319l1 91q0 -5 26.5 -8t69.5 -4.5t93.5 -1.5t103.5 0.5t95 1.5t72 1.5t31 0.5l-7 -82q-110 10 -214 10.5t-183.5 -4t-82.5 -4.5h-3
z" />
    <glyph glyph-name="question" unicode="?" horiz-adv-x="509" 
d="M170 56q0 30 18.5 53t45.5 23q17 0 33.5 -20t16.5 -39q0 -31 -16 -55t-42 -24q-22 0 -39 19.5t-17 42.5zM197 197q0 14 -1.5 43.5t-1.5 47.5t4 43.5t14 45.5q12 30 42.5 86.5t46.5 102.5t16 96q0 43 -25.5 66.5t-64.5 23.5q-59 0 -99.5 -40.5t-40.5 -104.5q30 11 63 -11
t33 -57q0 -90 -68 -90q-85 0 -85 116q0 42 17 83q31 76 93 126.5t142 50.5q137 0 186 -123q11 -25 11 -51q0 -60 -34 -116.5t-98.5 -126.5t-84.5 -97q-26 -36 -35 -137q-9 -12 -18 -1.5t-12 24.5z" />
    <glyph glyph-name="at" unicode="@" horiz-adv-x="676" 
d="M346 -6q-101 0 -194 55q-62 38 -92 115.5t-30 165.5q0 103 39.5 206.5t111.5 173.5q46 45 119.5 67t150 7t119.5 -71q31 -41 52 -110t22.5 -145.5t-14 -144.5t-61.5 -112.5t-116 -44.5q-48 0 -106 43q-44 -57 -120 -57q-36 0 -65.5 28t-29.5 68q0 92 119 148h1l2 1
q48 26 79 29q7 0 7 47q0 58 -34 81q-31 18 -63 2q-65 -27 -65 -63v-3q19 17 36 -0.5t17 -40.5q0 -26 -14 -41t-38 -15q-16 0 -27.5 14.5t-11.5 32.5q0 57 27.5 100t75.5 63q34 14 60 14q106 0 106 -125q0 -30 -9 -91.5t-9 -92.5q0 -85 29 -99q5 -2 24 -2q63 0 115 64
q22 43 28.5 77.5t6.5 91.5q0 92 -19 157t-74 113q-49 43 -105 43h-13q-64 0 -115 -23t-83 -61.5t-55.5 -89.5t-32 -107.5t-13 -114.5t1.5 -110q3 -50 24.5 -87t49.5 -57.5t65.5 -32.5t66 -15.5t57.5 -3.5q50 0 102 21t82 57q5 3 16 18.5t20 18.5h7q5 0 8 -12v-9
q0 -43 -44 -77t-97 -49t-97 -15zM233 284v-3q0 -72 26 -72q15 0 40.5 13t25.5 28q0 109 -9 109q-34 0 -58.5 -20.5t-24.5 -54.5z" />
    <glyph glyph-name="A" unicode="A" 
d="M359 269l-154 -20l-63 -257l-112 30q33 70 62.5 255.5t21.5 324.5l-43 -6l-22 95q0 6 428 57l16 -76l-62 -13q-3 -102 24 -306t90 -329l-132 -24zM209 589l3 -218q16 -4 128 10v4q0 36 -2.5 108.5t-2.5 110.5q-36 0 -115 -12q-8 0 -11 -3z" />
    <glyph glyph-name="B" unicode="B" horiz-adv-x="689" 
d="M33 253q-13 94 42 135q41 31 84 10q49 -22 49 -88q0 -45 -26 -69t-66 -11q76 -166 193 -176q83 -7 150 61q59 59 57 125q-1 75 -87 100q-47 13 -116 8l6 -84l-80 26l-24 367q-61 -3 -97 5l7 98q3 6 63.5 9.5t96.5 3.5q42 0 71 -1.5t69.5 -7t68 -17.5t54.5 -31t41.5 -51
t17.5 -74v-9q0 -39 -24.5 -68t-52.5 -41.5t-61 -23t-38 -13.5q201 -80 225 -199q17 -90 -70 -170q-85 -78 -208 -95q-148 -20 -244 68q-80 74 -101 213zM315 451q151 24 151 134v11q-2 32 -36 49.5t-69.5 16t-58.5 -4.5q-4 -11 13 -206z" />
    <glyph glyph-name="C" unicode="C" horiz-adv-x="642" 
d="M30 313q0 99 43.5 186.5t128.5 144t191 56.5q96 0 155 -38.5t59 -123.5q0 -66 -44.5 -114t-111.5 -48q-55 0 -84 48q-24 39 -6 67q13 19 42 19q36 0 46.5 -15t16.5 -59h8q55 0 55 72q0 54 -37 78.5t-96 24.5t-104.5 -28.5t-71 -74t-38.5 -96.5t-13 -102q0 -38 5.5 -72
t20 -67.5t37 -57.5t59 -38.5t82.5 -14.5q29 0 53.5 17.5t39 42.5t29.5 52t25.5 46.5t27.5 26t36 -10.5q2 -3 10 -11t13 -15t5 -14q-36 -80 -110.5 -136.5t-175.5 -56.5q-137 0 -216.5 90t-79.5 222z" />
    <glyph glyph-name="D" unicode="D" horiz-adv-x="651" 
d="M87 0l-8 113l57 8q4 40 2.5 250t-15.5 238h-93l5 83l28 6q57 12 87.5 18t80.5 12t92.5 3.5t82.5 -12.5q96 -24 155.5 -101.5t59.5 -171.5q0 -141 -65.5 -244.5t-175 -155t-248.5 -51.5q-28 0 -45 5zM224 129h16q69 0 121.5 34.5t80 88.5t41 107t13.5 102q0 74 -50 115
t-132 41q-43 0 -94 -4v-125q0 -192 4 -359z" />
    <glyph glyph-name="E" unicode="E" horiz-adv-x="545" 
d="M30 38q22 66 33 140t11 162t-3 145.5t-10 157.5l-3 41l-2 31q177 0 360 28l-8 -119h-9q-19 0 -75.5 1t-90.5 0.5t-50 -4.5q-4 -15 -15 -103q-1 -12 -2 -27t0 -15q97 -28 200 6l6 -104q-80 24 -201 -7q-14 -39 -9 -113t18 -116h16q80 0 178 13t141 39l-11 -128
q-62 0 -237 -14t-237 -14z" />
    <glyph glyph-name="F" unicode="F" horiz-adv-x="523" 
d="M30 743q24 -2 39 -2q75 0 228.5 27t190.5 27h5q0 -23 -17.5 -74.5t-29.5 -74.5q-42 25 -92.5 30.5t-82.5 0.5t-83 -18q-13 -42 -17.5 -101t9.5 -98q36 -7 80.5 3t73.5 27l-10 -150q-14 14 -28 22.5t-32 10t-26.5 1.5t-32.5 -4t-29 -5v-21q0 -180 70 -324h-170l2 31
q32 451 -48 692z" />
    <glyph glyph-name="G" unicode="G" horiz-adv-x="683" 
d="M32 299q-2 28 -2 44q0 57 12.5 114.5t39.5 112.5t65 97t94.5 67.5t123.5 25.5q100 0 155 -54t55 -147q0 -65 -35.5 -115t-101.5 -50q-40 0 -64 24t-28 61q-3 31 8.5 53t42.5 22q81 0 61 -96q23 15 28.5 48.5t-5.5 67.5t-42.5 60t-74.5 26q-63 0 -108 -35t-66 -90
t-28.5 -111t-2.5 -109q3 -31 12.5 -68t26.5 -80.5t47.5 -71.5t67.5 -28q52 0 75.5 37t23.5 90q0 3 -0.5 9.5t-0.5 9.5l-131 -9l-20 68l385 82l8 -117l-92 -12q1 -31 5.5 -75.5t12.5 -104.5l10 -75l-90 30v147q-13 -65 -69 -107.5t-127 -42.5q-51 0 -94 18.5t-73.5 49t-53 70
t-34.5 81t-16 83.5z" />
    <glyph glyph-name="H" unicode="H" horiz-adv-x="551" 
d="M40 -5q29 94 30 226t-11.5 222t-28.5 151l153 -18q-25 -88 -22 -226q2 0 32.5 0.5t57 1.5t57 5t42.5 10q10 28 19.5 177.5t-9.5 192.5h161q-37 -155 -53.5 -270t-12.5 -197t10.5 -119.5t23.5 -101.5l-152 -7q2 18 11.5 67t12.5 77t-1 78l-193 -2q-10 -78 -2 -136t38 -126
q-26 0 -76 -2.5t-87 -2.5z" />
    <glyph glyph-name="I" unicode="I" horiz-adv-x="234" 
d="M30 690l150 30q-11 -2 -16 -158.5t4.5 -325t35.5 -194.5l-154 -34q13 26 16.5 175.5t-6.5 307.5t-30 199z" />
    <glyph glyph-name="J" unicode="J" horiz-adv-x="551" 
d="M48 200q0 63 29 102.5t92 39.5q55 0 91 -32.5t36 -83.5q0 -42 -26.5 -64.5t-62 -16t-57.5 39.5q-16 -54 21.5 -95t95.5 -41q33 0 56.5 13.5t36 32t19 49t8 53.5t1.5 57q0 57 -10 185.5t-17 184.5l-307 -12l-24 94l490 57l1 -117l-55 -9h-3q2 -67 7 -140.5t10 -124
t9 -104.5t3.5 -89t-7 -69.5t-21 -55.5t-40 -37.5t-64 -23.5t-91.5 -7q-90 0 -155.5 62t-65.5 152z" />
    <glyph glyph-name="K" unicode="K" horiz-adv-x="592" 
d="M225 309q-4 4 -36 34q0 -26 -7.5 -107t-2.5 -135.5t30 -101.5q-60 -1 -178 3q28 86 41 177t10 198.5t-9 176t-20 192.5q-1 6 -2 18t-2 18q68 5 163 5v-9q-35 -143 -12 -348q71 108 159 254q45 71 122 71h12q53 -15 64 -111q1 -5 1 -15q0 -43 -23 -76t-65 -33
q-30 0 -49.5 25.5t-21.5 56.5h-4q-25 -13 -46.5 -40t-31 -44.5t-28.5 -62.5t-22 -53q49 -28 130 -103l6 -6l5 -4q38 -37 67 -88t59.5 -118t54.5 -107q52 -85 124 -141.5t159 -57.5q199 -4 227 69q-84 16 -81 50q1 24 40 39q55 21 96 -5q24 -17 34 -46q14 -46 -27.5 -83.5
t-105.5 -56.5q-99 -29 -219 -26q-79 3 -148.5 33.5t-118 76t-97.5 110.5t-83.5 124t-80.5 130t-83 117z" />
    <glyph glyph-name="L" unicode="L" horiz-adv-x="563" 
d="M142 0l-112 718l169 40q-43 -303 -2 -572q10 -66 75 -88t138.5 5t108.5 85l14 -168z" />
    <glyph glyph-name="M" unicode="M" horiz-adv-x="687" 
d="M199 19l-152 -4q28 206 37 353.5t-0.5 231.5t-19 119.5t-27.5 76.5l-7 17l169 -58l118 -463q72 122 156 484q27 -1 72.5 1.5t73.5 2.5q-52 -90 -46.5 -244.5t32 -291t52.5 -188.5l-172 14q15 65 15 160q0 120 -42 218q-123 -395 -129 -395t-9 13l-147 369q-3 -48 -4 -118
t6 -164t24 -134z" />
    <glyph glyph-name="N" unicode="N" horiz-adv-x="587" 
d="M178 76l-148 30q15 64 22.5 99.5t19.5 103.5t16 119.5t4.5 120.5t-6.5 134h119q21 -89 101 -224t142 -191q0 67 -5 229t-5 227v21q78 15 107 15q-11 -82 -13 -184.5t1 -164.5t12.5 -194t11.5 -169h-92q-12 18 -45.5 63t-72 95.5t-75.5 98.5t-60 78.5t-21 28.5
q-3 -45 -10.5 -121t-7.5 -98.5t5 -116.5z" />
    <glyph glyph-name="O" unicode="O" horiz-adv-x="603" 
d="M31 397q8 109 83 191t195 82q72 0 126.5 -28.5t84.5 -75t42.5 -101.5t8.5 -113q-5 -70 -35 -129t-92 -99t-146 -40q-4 0 -27 0.5t-27 0.5q-111 29 -166 117t-47 195zM176 410q-6 -32 -0.5 -75.5t16.5 -83t44 -67t83 -27.5q103 0 116 180q5 29 0 72.5t-15 84t-40.5 69
t-76.5 28.5q-36 0 -62 -18t-39 -49t-18.5 -57.5t-7.5 -56.5z" />
    <glyph glyph-name="P" unicode="P" horiz-adv-x="584" 
d="M44 658l-14 66q17 13 53.5 26t85 21t101.5 9.5t103.5 -11t91 -37t65 -72.5t23.5 -114q-1 -77 -43 -134.5t-106.5 -85.5t-139.5 -28q-27 0 -41 2q-1 -8 -1 -22q0 -24 14.5 -124t8.5 -188q-11 2 -65.5 13.5t-86.5 12.5q23 60 27.5 151.5t-2 163t-20.5 189.5t-18 168z
M177 700l42 -326q18 -3 35 -3q76 0 122 51t46 130q0 2 -0.5 8t-0.5 9q-3 49 -25.5 82.5t-57 47.5t-76 14t-85.5 -13z" />
    <glyph glyph-name="Q" unicode="Q" horiz-adv-x="689" 
d="M86 22l21 62q51 -19 92.5 -19t61 10t27.5 25q-124 14 -191 91t-67 214q0 138 90 241.5t213 103.5h10.5h11.5l5 -1q173 -8 252 -143q64 -110 41 -251q-22 -132 -105 -203q-60 -51 -136 -51h-27q-83 0 -97 -59l-2 -4q4 -16 100.5 -26.5t135.5 -10.5q0 38 14 57.5t48 19.5
q57 0 68 -44q11 -41 -23 -77q-30 -31 -75 -31q-55 0 -233.5 48t-234.5 48zM353 666q-77 0 -128 -47.5t-61 -115.5t4.5 -136t69 -115.5t131.5 -47.5t132.5 47.5t70 115.5t3 136t-71 115.5t-150.5 47.5z" />
    <glyph glyph-name="R" unicode="R" horiz-adv-x="664" 
d="M209 322q-8 2 -12 -10v-1v-18q0 -120 25 -209q12 -25 38 -73l-205 4q16 40 26 81t13.5 95t5 81t0.5 97.5t-1 84.5q-1 3 -1 8.5t-1 8.5q-6 67 -11 106.5t-19.5 96t-36.5 99.5h234q94 0 166.5 -63.5t74.5 -156.5v-5q0 -66 -47.5 -117.5t-115.5 -78.5q61 -32 141 -128
q35 -41 74 -108t71 -123t73.5 -111t98.5 -90t128 -41q205 -7 217 87v6q-35 4 -62.5 20t-27.5 46v4v3q0 27 25.5 41.5t51.5 8.5q40 -2 68 -35t28 -74v-4q0 -39 -23.5 -69.5t-58.5 -47.5t-82 -28t-86 -14.5t-78 -3.5h-7q-90 1 -164 37.5t-130.5 102t-98 131t-93 151.5
t-90.5 135q-55 69 -108 74zM270 694h-7q-2 0 -17.5 -0.5t-22 -2t-15.5 -7t-11 -15.5v-281q15 -3 29 -3q65 0 113.5 50t50.5 118v8q0 51 -32.5 92t-81.5 41h-6z" />
    <glyph glyph-name="S" unicode="S" horiz-adv-x="591" 
d="M30 185q0 46 29.5 74.5t76.5 28.5q36 0 72.5 -20t36.5 -55q0 -33 -23 -48t-54 0q0 -36 34 -60.5t76 -24.5q57 0 102.5 31t45.5 85q0 44 -19.5 75t-51.5 47.5t-70 28t-76 22t-70 25t-51.5 41.5t-19.5 67q0 75 39.5 126.5t96.5 72t125 20.5q35 0 78.5 -9.5t82.5 -36
t39 -62.5q0 -42 -26 -70.5t-68 -28.5q-24 0 -44 12t-20 34q0 12 12 29.5t12 28.5q0 19 -31 27t-55 8q-42 0 -72.5 -19.5t-30.5 -59.5q0 -46 33.5 -71.5t83 -36.5t100 -24.5t90 -49t46.5 -95.5q2 -16 2 -25q0 -72 -52.5 -128.5t-124 -83t-143.5 -26.5q-76 0 -143.5 40
t-67.5 111z" />
    <glyph glyph-name="T" unicode="T" horiz-adv-x="656" 
d="M240 605l-195 -22q-15 61 -15 145q67 -10 198.5 -4t262 22t129.5 27l6 -103q-21 -4 -78.5 -11.5t-103.5 -15.5t-72 -17q0 -6 -0.5 -21t-0.5 -23q0 -146 19.5 -312t61.5 -245h-154q-1 21 -1.5 127t-3 165t-16 145t-37.5 143z" />
    <glyph glyph-name="U" unicode="U" horiz-adv-x="577" 
d="M30 692l149 21q-1 -24 -13.5 -91t-19.5 -126t-4.5 -121.5t35 -99.5t96.5 -37q60 0 93.5 42t39.5 103.5t-1.5 133.5t-21.5 129t-29 93q76 16 191 16q-1 -31 0 -86t1.5 -96.5t-3 -96t-11.5 -94.5t-26.5 -82t-45.5 -68.5t-70.5 -43.5t-100.5 -17q-115 0 -175.5 70.5
t-63.5 174.5q0 5 2 76.5t-2.5 127.5t-19.5 72z" />
    <glyph glyph-name="V" unicode="V" horiz-adv-x="610" 
d="M30 647q125 20 196 22q3 -257 75 -527q9 37 31 113.5t33.5 120.5t21.5 109.5t10 123.5q0 77 -13 115q95 6 196 6q-14 -35 -51.5 -128.5t-54.5 -141t-41.5 -125t-34.5 -146.5t-10 -139v-10l-169 -32q0 150 -52.5 345.5t-136.5 293.5z" />
    <glyph glyph-name="W" unicode="W" horiz-adv-x="781" 
d="M421 6l-116 342l-63 -337l-133 -12q29 69 8 253.5t-48 332.5t-39 190l174 -18q-1 -2 -5.5 -12t-6.5 -20t-6 -32t-4.5 -56.5t0.5 -83.5t7 -124t15 -167l58 239l4 4q5 5 111 9l91 -304q34 116 55.5 201.5t28.5 132.5t8.5 71.5t-1 44.5t-2.5 24l194 -37
q-64 -127 -110.5 -241t-67.5 -185.5t-33 -124.5t-13 -76l-1 -23q-24 0 -63 3t-42 6z" />
    <glyph glyph-name="X" unicode="X" horiz-adv-x="815" 
d="M634 729q-19 -14 -97 -136.5t-161 -268.5q29 -91 115 -182q88 -95 151 -93t69 111q-40 6 -70 27t-30 55q0 6 1 10q5 36 27.5 50t59.5 16h5q51 0 68.5 -43.5t8.5 -98.5q-12 -79 -46 -124.5t-78 -54.5t-95 5t-97 47.5t-84.5 78.5t-58.5 93q-78 -154 -92 -187l-143 42
q58 57 96 106.5t86 123.5q-14 25 -110.5 191t-128.5 228l138 37q15 -58 67 -175.5t91 -186.5q51 100 148 324q69 5 160 5z" />
    <glyph glyph-name="Y" unicode="Y" horiz-adv-x="595" 
d="M30 158q0 58 19.5 85.5t69.5 27.5q45 0 70 -29t25 -83q0 -26 -9.5 -43t-20.5 -22t-22 -10.5t-13 -10.5q92 -66 110 10q23 99 -85 367q-44 107 -104 228l176 22v-1q-1 -9 -2 -22t1.5 -51.5t9.5 -83.5t25 -119.5t45 -158.5q35 106 50.5 159.5t31 144.5t19.5 192l139 13
l-162 -553q-69 -241 -222 -241q-63 0 -107 52t-44 127z" />
    <glyph glyph-name="Z" unicode="Z" horiz-adv-x="611" 
d="M43 128q34 20 66 50t57 60t62.5 90.5t63.5 105t79 138.5l-236 -34l-10 -188l-42 -6q-19 93 -46 314q85 -11 292 15.5t223 26.5q3 0 -1.5 -13t-26.5 -51t-59 -94.5t-111 -157.5t-171 -226l288 -14l8 156q2 0 33.5 -3.5t34.5 -4.5l34 -252q-43 -22 -108 -23.5t-126 10
t-153.5 26.5t-162.5 19q0 4 5 21.5t7 34.5z" />
    <glyph glyph-name="backslash" unicode="\" horiz-adv-x="308" 
d="M147 677q32 -163 57 -295t36.5 -194t19 -106.5t11 -60t7.5 -27.5h-122q0 8 1.5 25.5t1.5 26.5q-59 444 -63 465q-6 29 -15.5 81t-17.5 89t-19 69q0 1 -7 18t-7 25q0 5 4 7h6q12 0 35.5 -1t34.5 -1q3 0 7 1t7 1h2l6 -12q0 -14 15 -111z" />
    <glyph glyph-name="underscore" unicode="_" horiz-adv-x="631" 
d="M30 17v23q1 5 6 7q28 0 555 -2q6 -1 8 -15t1 -20q0 -5 -8 -7q-53 1 -551 5q-10 3 -11 9z" />
    <glyph glyph-name="a" unicode="a" horiz-adv-x="514" 
d="M39 92q-15 64 -3.5 112.5t46 81t80.5 48t101 13.5t106 -23q0 27 -1 48t-5 52t-13 53t-23 43.5t-37.5 33t-54.5 11.5q-38 0 -67 -23.5t-29 -62.5q0 -34 40 -34q0 19 2 30t11.5 20.5t27.5 9.5q19 0 31.5 -12t12.5 -31q0 -35 -23 -51.5t-60 -16.5q-39 0 -66 22t-27 61
q0 67 57.5 107.5t126.5 40.5q42 0 83.5 -14.5t73 -47.5t31.5 -77q0 -54 10 -241t14 -220v-5q-112 -14 -124 -14v71q-47 -52 -117.5 -74t-130 0.5t-73.5 88.5zM139 177q0 -39 17.5 -69t53.5 -30q53 0 109.5 39t56.5 88q0 38 -39 65.5t-82 27.5q-55 0 -85.5 -33t-30.5 -88z
" />
    <glyph glyph-name="b" unicode="b" horiz-adv-x="552" 
d="M242 -18l-142 -30q-2 103 -4.5 191.5t-7 157t-7.5 121t-9 96.5t-8.5 70t-9.5 54.5t-8.5 36.5t-8.5 31l-7 22l147 20q-9 -15 -15 -34.5t-8.5 -52t-3.5 -46.5t-1 -60.5v-50.5q61 48 142 48q115 0 173 -78.5t58 -186.5q0 -17 -1 -25q-7 -100 -69 -172t-171 -72q-35 0 -59 4
q5 -15 20 -44zM174 319q-5 -29 -0.5 -69t14 -76t38.5 -61t73 -25q90 0 103 164q2 33 -0.5 67.5t-12.5 74.5t-37 65t-67 25q-32 0 -54.5 -16.5t-34 -44.5t-16.5 -52.5t-6 -51.5z" />
    <glyph glyph-name="c" unicode="c" horiz-adv-x="523" 
d="M32 277q-7 76 18 148t86.5 123t145.5 51q169 0 181 -135q0 -134 -112 -134q-29 0 -57 19t-28 49q0 18 14 34t33 16q22 0 33.5 -16.5t17.5 -33t15 -16.5q36 0 31 53q-4 43 -34 71t-75 28q-48 0 -79.5 -47.5t-37.5 -115t3 -135.5t41.5 -115.5t78.5 -47.5q58 0 99 47.5
t41 107.5q0 9 11 13.5t22.5 -1t12.5 -21.5q0 -88 -56 -143t-150 -55q-112 0 -179 72.5t-76 183.5z" />
    <glyph glyph-name="d" unicode="d" horiz-adv-x="563" 
d="M31 303q7 100 68.5 175.5t161.5 75.5q83 0 136 -50q-1 98 -9 205h145q-35 -212 -47 -348t-7.5 -204.5t22.5 -135.5l-136 -7l5 37q-51 -35 -119 -35q-3 0 -22 0.5t-22 0.5q-86 24 -131.5 97t-45.5 164q0 17 1 25zM151 315q-5 -30 -0.5 -70t13.5 -76t36.5 -61t68.5 -25
q83 0 96 165q4 27 0 67t-12.5 77t-33.5 63.5t-63 26.5q-97 0 -105 -167z" />
    <glyph glyph-name="e" unicode="e" horiz-adv-x="475" 
d="M30 332q0 96 59 179.5t152 83.5q46 0 81.5 -20t56.5 -54.5t33 -73.5t16 -84l-287 -64q0 -100 44 -178q22 -40 69 -50t86 15t40 76v4q-17 -21 -52 -21q-33 0 -52 17.5t-19 49.5q3 34 27.5 61t56.5 27h6q43 0 70.5 -24.5t27.5 -66.5q0 -80 -45.5 -140t-122.5 -60h-9
q-63 0 -110 28.5t-73 77.5t-39.5 102.5t-15.5 114.5zM252 513q-45 0 -75 -51.5t-30 -100.5l201 28q0 41 -28.5 82.5t-67.5 41.5z" />
    <glyph glyph-name="f" unicode="f" horiz-adv-x="518" 
d="M38 370l-8 90l56 6q0 8 -0.5 25t-0.5 26q0 67 5.5 117.5t20.5 96t40.5 74t66 45t95.5 16.5q88 0 135.5 -48.5t37.5 -135.5q-6 -47 -52 -73t-90 -11t-44 68q0 65 41 76t75 -42q14 52 -12 77.5t-80 25.5h-9q-129 -14 -135 -329l116 8l-20 -90l-94 8q10 -243 23 -345l50 4
l41 -100l-247 -25l1 99l56 9q0 15 -16 340z" />
    <glyph glyph-name="g" unicode="g" horiz-adv-x="620" 
d="M35 -152q0 37 29.5 65t66 40t68.5 12q38 0 68.5 -18t30.5 -57q0 -42 -33.5 -61t-74.5 -19q-25 0 -63 13q0 -55 65 -68q69 -13 146 26q84 43 95 115q1 11 1 22q-2 46 -35.5 71t-87.5 28.5t-104 0.5t-103.5 -10.5t-67.5 -7.5h-6l153 137q-74 43 -102.5 84.5t-28.5 89.5
q0 49 30 90.5t76.5 67t96.5 41t97 18.5q-38 19 -38 52q0 41 33.5 74t72.5 33q34 0 60.5 -23.5t26.5 -59.5q0 -27 -24.5 -40t-53 -12t-47.5 10q0 -24 12 -28q173 -80 173 -188q0 -40 -7.5 -72t-23.5 -54.5t-33.5 -39.5t-45.5 -27t-50.5 -16t-57.5 -9t-57.5 -3.5t-59.5 -0.5
q-7 0 -45.5 -25t-42.5 -34q42 14 97.5 20t117 -0.5t113 -25.5t85 -62t33.5 -103q0 -42 -24.5 -77.5t-62.5 -56.5q-29 -16 -83.5 -31t-120.5 -20.5t-125 2t-99 42.5t-40 95zM327 449q-83 0 -129 -66q-40 -56 -22 -113q21 -64 105 -71q9 -1 18 -1q71 0 119 33.5t48 103.5
q0 51 -44 82.5t-95 31.5z" />
    <glyph glyph-name="h" unicode="h" horiz-adv-x="547" 
d="M200 14l-153 1q28 206 37 353.5t-0.5 231.5t-19 119.5t-27.5 76.5l-7 17l169 -58q-3 -33 -5.5 -76.5t-5.5 -93.5t-4 -70q23 16 34 22.5t32 12t49 5.5q55 0 95.5 -14.5t64 -38t37 -60t17.5 -73t3 -84.5t-5 -88.5t-8 -90.5t-4 -84v-17l-191 16q3 6 9 22q11 27 17.5 43.5
t20 51t20 58t16.5 58.5t12.5 59.5t4.5 53.5t-5 49t-18.5 37.5t-33 26t-50.5 8.5q-54 0 -86 -28t-41.5 -69.5t-8.5 -98t9.5 -105t16.5 -100t9 -73.5z" />
    <glyph glyph-name="i" unicode="i" horiz-adv-x="275" 
d="M90 12q14 73 15 143t-4.5 116t-14 109.5t-10.5 107.5h141q-14 -56 -15 -122t4.5 -117t14 -122t10.5 -115h-141zM30 673q0 42 31 71.5t78 29.5t76.5 -29.5t29.5 -71.5t-29.5 -71.5t-76.5 -29.5t-78 29.5t-31 71.5z" />
    <glyph glyph-name="j" unicode="j" horiz-adv-x="371" 
d="M-201 -186q0 63 29 102.5t92 39.5q55 0 91 -32.5t36 -83.5q0 -42 -26.5 -64.5t-62 -16t-57.5 39.5q-15 -52 19 -94t88 -42h10q142 13 142 363v8q0 57 -10 185.5t-17 184.5l-53 -4l-42 99l256 25l-1 -98l-58 -9q2 -70 7 -163.5t9 -155.5t5 -136.5t-4 -123t-20 -98
t-41.5 -77.5t-69 -45.5t-101.5 -17.5q-90 0 -155.5 62t-65.5 152zM50 689q0 36 30.5 61.5t76.5 25.5t75 -25.5t29 -61.5t-29 -61.5t-75 -25.5t-76.5 25.5t-30.5 61.5z" />
    <glyph glyph-name="k" unicode="k" horiz-adv-x="635" 
d="M191 322q-12 0 -12 -11q0 -65 2.5 -105t17 -94.5t42.5 -95.5h-186q41 184 33 379t-58 378h162q-1 -11 -3.5 -39t-3.5 -38t-2.5 -40t-2 -61t-1 -83.5t-0.5 -123.5q15 -3 29 -3q65 0 103.5 51t38.5 123q0 7 -2 23h115q0 -4 0.5 -10.5t0.5 -9.5q0 -75 -40.5 -124t-121.5 -86
q53 -27 143 -126q26 -29 53 -65.5t58 -81.5t49 -69h-148q-24 15 -40.5 45.5t-24.5 64t-22 70t-32 65.5t-55.5 48t-91.5 19z" />
    <glyph glyph-name="l" unicode="l" horiz-adv-x="231" 
d="M96 0l-66 743l171 30q-28 -151 -39 -262.5t-4 -243.5t38 -268z" />
    <glyph glyph-name="m" unicode="m" horiz-adv-x="672" 
d="M58 5q14 89 15 181.5t-8 161t-18 112t-16 62.5v4q13 0 49.5 -6.5t37.5 -9.5q-1 2 14 17.5t44 31.5t57 16q27 0 48 -10t34.5 -29t23 -38.5t14.5 -46.5t7 -44.5t4 -40.5q16 68 58 119t102 51q59 0 89 -47.5t28.5 -114.5t-14.5 -134t-35 -114t-38 -46l-64 4q33 35 45 112.5
t1 140.5t-36 63q-87 0 -124 -276q0 -1 -0.5 -3.5t-0.5 -3.5l-64 -11q3 104 -14 187q-6 37 -29 79.5t-52 42.5q-24 0 -38.5 -37t-14.5 -67q0 -75 16.5 -148.5t40.5 -113.5z" />
    <glyph glyph-name="n" unicode="n" horiz-adv-x="504" 
d="M30 64q18 137 17.5 217t-17.5 219l104 7l5 -50l11 12q26 27 40 38.5t40 21t61 9.5q68 0 111 -42t58 -106t13.5 -141.5t-16.5 -149t-38 -126.5l-85 18q28 110 30 226q5 213 -108 213q-36 0 -59 -21t-32 -59.5t-11 -63.5t-2 -63v-13q18 -129 33 -171l-154 22q-1 2 -1 3z
" />
    <glyph glyph-name="o" unicode="o" horiz-adv-x="510" 
d="M30 278q0 300 258 300q59 0 101 -33.5t61 -81t26 -106.5q4 -31 4 -65q0 -111 -46.5 -184t-112.5 -88t-132 3t-112.5 88t-46.5 167zM126 316q0 -70 26 -126t63.5 -76t75 -14t63.5 62t26 150v11q0 67 -26 112t-63.5 54.5t-75 -2t-63.5 -58t-26 -113.5z" />
    <glyph glyph-name="p" unicode="p" horiz-adv-x="452" 
d="M66 -198l1 1l2 61q2 60 2 130t-2 162.5t-12 195t-27 188.5l108 40l-8 -68q75 71 158 71q45 0 76.5 -38.5t44.5 -92t13 -115.5q0 -85 -49.5 -144.5t-109.5 -59.5q-71 0 -118 46l46 -357l-113 -25h-9q-3 3 -3 5zM161 350q0 -134 71 -134q42 0 63.5 33.5t21.5 90.5
q0 62 -16.5 111t-52.5 49q-38 0 -62.5 -42t-24.5 -108z" />
    <glyph glyph-name="q" unicode="q" horiz-adv-x="452" 
d="M178 -100v40l102 18l27 221q-45 -42 -118 -47h-9q-72 0 -116.5 60t-44.5 130q0 75 35.5 140t101.5 88q70 23 163 -47q-1 11 -4 32.5t-4 32.5l111 -30q-41 -218 -41 -515v-53l70 15l15 -55l-85 2q2 -86 5 -130q-54 3 -125 20l14 98zM290 345q0 50 -21 93t-65 43h-4
q-70 -22 -70 -159q0 -40 22 -73.5t59 -33.5q1 0 4 0.5t5 0.5q70 2 70 116v13z" />
    <glyph glyph-name="r" unicode="r" horiz-adv-x="459" 
d="M208 4l-163 -16q7 0 14.5 76t2 226.5t-31.5 307.5l88 -6l4 -44q89 85 185 85q122 0 122 -200q0 -69 -49.5 -97t-99 -3t-49.5 85q0 44 25 68t73 24q21 0 41 -6v2q-8 23 -33.5 35.5t-51.5 12.5q-218 0 -85 -514zM373 502q-1 0 -1 -1.5t1 -1.5t1 1.5t-1 1.5z" />
    <glyph glyph-name="s" unicode="s" horiz-adv-x="524" 
d="M30 162q0 47 32.5 77.5t89.5 30.5q38 0 64.5 -24t26.5 -54q0 -25 -16.5 -46.5t-46.5 -21.5q-8 0 -23.5 2.5t-23.5 2.5q14 -47 70.5 -55t107 19.5t50.5 68.5q0 38 -53.5 71.5t-110.5 46.5q-76 18 -107 42t-31 85q0 73 57.5 118t150.5 51q102 7 169 -61q52 -53 44 -112
q-8 -60 -80 -79q-8 -2 -16 -3h-3q-33 0 -56.5 20t-23.5 47q0 60 77 60q-9 53 -46 71t-76.5 5t-71 -45t-31.5 -68q0 -30 35 -52.5t85.5 -39t100.5 -35t85 -49.5t35 -74q0 -60 -66 -108t-144 -48q-254 0 -254 157z" />
    <glyph glyph-name="t" unicode="t" horiz-adv-x="518" 
d="M46 340l-16 72l76 6q2 38 2 70.5t-1 53.5t-4.5 88.5t-6.5 121.5l142 -8l-40 -322l156 26l-22 -80l-134 -6q6 -351 133 -365q61 0 93 29.5t18 81.5q-22 -34 -55.5 -40.5t-59 16t-25.5 64.5q0 60 41.5 79.5t86.5 -7.5t54 -82q14 -92 -27.5 -148t-127.5 -56q-63 0 -110 23
t-73.5 62.5t-41 93t-13 114.5t10.5 127z" />
    <glyph glyph-name="u" unicode="u" horiz-adv-x="522" 
d="M409 28l-19 59q-56 -51 -116 -59.5t-105.5 20t-76 85t-32.5 128.5q0 2 -0.5 27t-1 43.5t-2.5 48t-5 50.5t-8.5 40t-12.5 26l164 18q1 -22 -10.5 -77.5t-19.5 -107.5t-7.5 -104t28 -84t84.5 -32q54 0 81.5 34.5t29.5 84.5t-9 110t-26.5 106.5t-30.5 78.5q70 13 160 13
q-8 -84 -11 -126t2.5 -147.5t26.5 -223.5z" />
    <glyph glyph-name="v" unicode="v" horiz-adv-x="484" 
d="M289 14l-91 -2q-168 496 -167 496q20 0 77 13t75 21q19 -138 37 -283q13 -98 17 -99q59 263 43 430q3 -1 73.5 -24t100.5 -28q-90 -239 -121 -340.5t-44 -183.5z" />
    <glyph glyph-name="w" unicode="w" horiz-adv-x="582" 
d="M135 -28q-49 6 -74 35t-29 69t2.5 96.5t19 109.5t22.5 116.5t10 108.5q0 35 -5 58q64 -16 95.5 -25t35.5 -11.5t3 -5.5q-64 -108 -90 -275t29 -180q2 0 5 -0.5t4 -0.5q23 0 40 17t25 37.5t13.5 55.5t6.5 52.5t2 46.5v8l74 -2q0 -39 35 -135q33 -88 51 -81q34 13 -16 395
q-1 2 2.5 4.5t41.5 12t111 22.5q-36 -13 -36 -325v-23q0 -32 -1.5 -52t-7.5 -43.5t-17.5 -36.5t-32 -22t-50.5 -9q-48 0 -73.5 26t-46.5 78q-5 -7 -17.5 -27.5t-18.5 -29.5t-18.5 -24t-23 -22t-25.5 -13t-32 -6q-9 0 -14 1z" />
    <glyph glyph-name="x" unicode="x" horiz-adv-x="562" 
d="M162 0l-132 47q6 4 17.5 19.5t30.5 44.5t37 57.5t48 76.5t53 85q-37 46 -163 184l117 66q51 -114 111 -171q62 110 79 144l123 -33q-44 -42 -93 -108t-58 -76q6 -9 89 -138t111 -178l-119 -28q-13 46 -58 136.5t-78 142.5q-28 -48 -64.5 -145t-50.5 -126z" />
    <glyph glyph-name="y" unicode="y" horiz-adv-x="457" 
d="M70 -52q0 31 18.5 51t45.5 23.5t54 -1t45.5 -22t18.5 -41.5q0 -44 -19 -64t-61 -36q80 -60 128 45q42 91 39 232q-2 79 -19 123q1 -29 -10 -49.5t-31 -29t-36 -11.5t-34 -3q-59 0 -104 39t-62.5 95t-8.5 121t49 113l123 -11q-27 -20 -47 -64t-24.5 -88.5t19.5 -78.5
t76 -34q30 0 48 17t22.5 47t3.5 61.5t-9 69t-14 61t-13 45.5l153 38v-11q0 -16 2.5 -116.5t3 -183t-5 -181t-19.5 -148.5q-13 -47 -51 -86.5t-85 -56t-91.5 -14.5t-74.5 41t-30 108z" />
    <glyph glyph-name="z" unicode="z" horiz-adv-x="597" 
d="M54 -11q-9 0 -9 11l319 443q-2 2 -3 2q-28 0 -88.5 -5.5t-90.5 -5.5h-8q64 -19 64 -85q0 -34 -24 -58.5t-55 -24.5q-24 0 -41.5 6t-28.5 19.5t-17.5 26t-10 35.5t-4.5 37t-1.5 41t-1.5 38q-2 35 -23 98q0 1 -0.5 2t-0.5 2q42 -22 138 -36t171.5 -13t109.5 11l56 -103
l-2 -3q-12 -17 -292 -312q25 10 56 4.5t53 -16.5t55 -22.5t61 -12.5q-46 62 -26 104t74 42q83 0 83 -91q0 -60 -31 -89t-78.5 -28.5t-107.5 7.5t-115.5 16t-106 0.5t-74.5 -40.5zM126 448q0 -18 6 -18q23 0 31 8q-6 0 -18.5 5t-18.5 5z" />
    <glyph glyph-name="exclamdown" unicode="&#xa1;" horiz-adv-x="208" 
d="M110 842q12 0 25 -16t13 -35q0 -25 -11.5 -48.5t-28.5 -23.5q-14 0 -27 18.5t-13 39.5t14 43t28 22zM143 635l28 -544q7 -49 7 -86q0 -15 -15 -15q-11 0 -50 1t-52 1q-7 0 -16 3q-15 2 -15 14q56 583 56 626q0 21 4.5 28t18.5 7q34 0 34 -35z" />
    <glyph glyph-name="sterling" unicode="&#xa3;" horiz-adv-x="522" 
d="M148 34q-40 0 -59 -7q-8 -2 -23 -9q-2 -1 -7 -5.5t-8 -4.5q-6 0 -6 8v4q6 6 6 16q27 97 27 207v8l-39 4q-3 0 -5 3t-3 8.5t-1 9.5t0.5 10t0.5 7q0 12 10 12h36q0 27 -2 54t-5.5 62t-5.5 58q-1 15 -1 22q0 55 7 80q21 73 72.5 136.5t118.5 63.5q43 0 85 -22.5t57 -63.5
q7 -15 12.5 -46.5t6.5 -36.5q-18 -69 -63 -69q-32 0 -48 23t-12 52t23 46q2 2 12.5 5t10.5 10q-21 61 -105 61q-62 0 -93.5 -51t-31.5 -124q0 -19 4 -39t8 -33t12.5 -36t12.5 -34q12 -39 20 -112l2 -3q36 0 50 -2q15 0 16 -9l1 -11q1 -10 1 -13v-4q0 -9 -14.5 -13
t-35.5 -4.5t-22 -0.5q-1 -2 -4 -11q-4 -25 -15.5 -67.5t-14.5 -54.5q55 33 111 33q40 0 112 -31l4 -2q5 -2 14 -6t17.5 -6.5t16.5 -2.5q13 24 13 68q0 20 -6.5 54t-6.5 49q0 18 8 25.5t26 7.5q26 0 32 -19l2 -7q13 -45 13 -73q0 -82 -23 -123.5t-90 -66.5q-29 -12 -72 -12
q-47 0 -81 10q-7 2 -24.5 7.5t-29.5 8t-24 2.5z" />
    <glyph glyph-name="ordfeminine" unicode="&#xaa;" horiz-adv-x="367" 
d="M30 581q0 57 46.5 86t112.5 29q1 0 5 -1.5t7.5 -2.5t7.5 -1.5t7 0t3 3.5q0 79 -6 94q-9 26 -51 26q-17 0 -32.5 -7.5t-16.5 -23.5q4 2 13 2q12 0 18 -10t6 -23q0 -19 -16 -32.5t-35 -13.5q-22 0 -38.5 14t-16.5 36q0 49 42.5 78t95.5 29q54 0 88 -33.5t39 -88.5
q0 -146 2 -169q2 -18 6 -23q1 -2 6.5 -6t9.5 -8t4 -7q0 -5 -4 -7q-22 -4 -35 -4q-21 0 -41 14t-30 33q-3 -2 -11.5 -12t-10.5 -11q-43 -38 -90 -38q-39 0 -62 20t-23 58zM130 609q0 -43 19 -43q18 0 37.5 12.5t28.5 29.5v37q0 8 -29 8q-27 0 -41 -9t-15 -35z" />
    <glyph glyph-name="guillemotleft" unicode="&#xab;" horiz-adv-x="530" 
d="M30 297q118 62 278 222v-103l-159 -112q53 -51 159 -107v-67q-234 153 -278 167zM222 297q118 62 278 222v-103l-159 -112q53 -51 159 -107v-67q-234 153 -278 167z" />
    <glyph glyph-name="ordmasculine" unicode="&#xba;" horiz-adv-x="346" 
d="M30 672q0 40 16 87t50.5 84.5t76.5 37.5q50 0 90 -22.5t48 -68.5q7 -39 3 -110q-3 -43 -29 -77t-62 -49t-78.5 -10t-74.5 34q-40 34 -40 94zM123 669q0 -75 51 -75q30 0 46.5 58t7.5 115.5t-41 57.5q-4 0 -7 -1q-43 -2 -57 -142v-13z" />
    <glyph glyph-name="guillemotright" unicode="&#xbb;" horiz-adv-x="530" 
d="M308 297q-44 -14 -278 -167v67q106 56 159 107l-159 112v103q160 -160 278 -222zM500 297q-44 -14 -278 -167v67q106 56 159 107l-159 112v103q160 -160 278 -222z" />
    <glyph glyph-name="questiondown" unicode="&#xbf;" horiz-adv-x="509" 
d="M339 763q0 -30 -18.5 -53t-45.5 -23q-17 0 -33.5 20t-16.5 39q0 31 16 55t42 24q22 0 39 -19.5t17 -42.5zM312 622q0 -14 1.5 -43.5t1.5 -47.5t-4 -43.5t-14 -45.5q-12 -30 -42.5 -86.5t-46.5 -102.5t-16 -96q0 -43 25.5 -66.5t64.5 -23.5q59 0 99.5 40.5t40.5 104.5
q-30 -11 -63 11t-33 57q0 90 68 90q85 0 85 -116q0 -42 -17 -83q-31 -76 -93 -126.5t-142 -50.5q-137 0 -186 123q-11 25 -11 51q0 60 34 116.5t98.5 126.5t84.5 97q26 36 35 137q9 12 18 1.5t12 -24.5z" />
    <glyph glyph-name="Agrave" unicode="&#xc0;" 
d="M359 269l-154 -20l-63 -257l-112 30q33 70 62.5 255.5t21.5 324.5l-43 -6l-22 95q0 6 428 57l16 -76l-62 -13q-3 -102 24 -306t90 -329l-132 -24zM209 589l3 -218q16 -4 128 10v4q0 36 -2.5 108.5t-2.5 110.5q-36 0 -115 -12q-8 0 -11 -3zM373 779q-9 -10 -23 -10
q-38 0 -97 44t-59 77q0 14 16 25t30 11q24 0 60 -46q53 -62 73 -101z" />
    <glyph glyph-name="Aacute" unicode="&#xc1;" 
d="M359 269l-154 -20l-63 -257l-112 30q33 70 62.5 255.5t21.5 324.5l-43 -6l-22 95q0 6 428 57l16 -76l-62 -13q-3 -102 24 -306t90 -329l-132 -24zM209 589l3 -218q16 -4 128 10v4q0 36 -2.5 108.5t-2.5 110.5q-36 0 -115 -12q-8 0 -11 -3zM148 761q20 39 73 101
q36 46 60 46q14 0 30 -11t16 -25q0 -33 -59 -77t-97 -44q-14 0 -23 10z" />
    <glyph glyph-name="Acircumflex" unicode="&#xc2;" 
d="M359 269l-154 -20l-63 -257l-112 30q33 70 62.5 255.5t21.5 324.5l-43 -6l-22 95q0 6 428 57l16 -76l-62 -13q-3 -102 24 -306t90 -329l-132 -24zM209 589l3 -218q16 -4 128 10v4q0 36 -2.5 108.5t-2.5 110.5q-36 0 -115 -12q-8 0 -11 -3zM177 746l-91 25q-1 0 12 10
t33 27.5t40.5 38t38 45.5t23.5 46q2 0 11 -0.5t16 -1t14.5 -3t9.5 -5.5q32 -47 73.5 -100t58.5 -63q-85 -2 -87 -2l-3 1q-9 19 -18 34.5t-26.5 41t-25.5 37.5q-19 -52 -70 -126q-7 -7 -9 -5z" />
    <glyph glyph-name="Atilde" unicode="&#xc3;" 
d="M359 269l-154 -20l-63 -257l-112 30q33 70 62.5 255.5t21.5 324.5l-43 -6l-22 95q0 6 428 57l16 -76l-62 -13q-3 -102 24 -306t90 -329l-132 -24zM209 589l3 -218q16 -4 128 10v4q0 36 -2.5 108.5t-2.5 110.5q-36 0 -115 -12q-8 0 -11 -3zM166 777l-68 -9q-1 0 -1.5 15
t2 36.5t10 43.5t26.5 39t47 20h6q14 0 27.5 -9t21.5 -18t22 -27l3 -4q25 -21 43 -14t27.5 25t11.5 40l57 5q0 -38 -32 -92t-73 -54q-24 0 -60 38t-50 38q-18 0 -24.5 -28t4.5 -45z" />
    <glyph glyph-name="Adieresis" unicode="&#xc4;" 
d="M359 269l-154 -20l-63 -257l-112 30q33 70 62.5 255.5t21.5 324.5l-43 -6l-22 95q0 6 428 57l16 -76l-62 -13q-3 -102 24 -306t90 -329l-132 -24zM209 589l3 -218q16 -4 128 10v4q0 36 -2.5 108.5t-2.5 110.5q-36 0 -115 -12q-8 0 -11 -3zM290 843q0 25 15.5 39t39.5 14
q22 0 42 -15.5t20 -40.5q-11 -54 -60 -54q-57 14 -57 57zM96 828q0 24 15.5 44.5t38.5 20.5t38.5 -19t15.5 -44q0 -23 -14.5 -38t-36.5 -15t-39.5 14.5t-17.5 36.5z" />
    <glyph glyph-name="Aring" unicode="&#xc5;" 
d="M359 269l-154 -20l-63 -257l-112 30q33 70 62.5 255.5t21.5 324.5l-43 -6l-22 95q0 6 428 57l16 -76l-62 -13q-3 -102 24 -306t90 -329l-132 -24zM209 589l3 -218q16 -4 128 10v4q0 36 -2.5 108.5t-2.5 110.5q-36 0 -115 -12q-8 0 -11 -3zM98 885q0 91 115 127
q62 13 109 -31t47 -109t-68 -97q-67 -31 -135 4.5t-68 105.5zM176 889q0 -27 20.5 -49t48.5 -22q26 0 41.5 20.5t15.5 46.5q0 43 -36 67.5t-69 -5.5q-21 -24 -21 -58z" />
    <glyph glyph-name="AE" unicode="&#xc6;" horiz-adv-x="828" 
d="M313 -2q38 114 43 270l-151 -19l-63 -257l-112 30q33 70 62.5 255.5t21.5 324.5l-43 -6l-22 95q2 -9 103.5 -12.5t260.5 5.5t287 32l-9 -132h-9q-19 0 -75.5 1t-90.5 0.5t-50 -4.5q-6 -31 -12 -94t-5 -88q97 -28 200 6l6 -104q-80 24 -201 -7q-14 -40 -9.5 -94.5
t18.5 -97.5h16q80 0 178 13t141 39l-11 -128q-63 0 -237 -14t-237 -14zM209 589l3 -218q16 -4 128 10v4q0 36 -2.5 108.5t-2.5 110.5q-36 0 -115 -12q-8 0 -11 -3z" />
    <glyph glyph-name="Ccedilla" unicode="&#xc7;" horiz-adv-x="642" 
d="M220 -198q0 52 50 52q19 0 32 -11t13 -28q0 -28 -33 -38q30 -15 51 8t21 57q0 20 -6 33.5t-13 20.5t-24 10.5t-28.5 4t-36.5 0.5q-5 0 -7 3q0 6 4 45.5t3 50.5q-102 26 -159 109t-57 194q0 99 43.5 186.5t128.5 144t191 56.5q96 0 155 -38.5t59 -123.5q0 -66 -44.5 -114
t-111.5 -48q-55 0 -84 48q-24 39 -6 67q13 19 42 19q36 0 46.5 -15t16.5 -59h8q55 0 55 72q0 54 -37 78.5t-96 24.5t-104.5 -28.5t-71 -74t-38.5 -96.5t-13 -102q0 -38 5.5 -72t20 -67.5t37 -57.5t59 -38.5t82.5 -14.5q29 0 53.5 17.5t39 42.5t29.5 52t25.5 46.5t27.5 26
t36 -10.5q2 -3 10 -11t13 -15t5 -14q-36 -80 -110.5 -136.5t-175.5 -56.5l-18 -2q0 -8 -0.5 -24t-0.5 -24q0 -1 0.5 -3t0.5 -3q8 -2 29.5 -5.5t32 -7t25 -11.5t20.5 -23t6 -37q0 -53 -62 -90q-57 -34 -102 -21q-37 11 -37 52z" />
    <glyph glyph-name="Egrave" unicode="&#xc8;" horiz-adv-x="545" 
d="M30 38q22 66 33 140t11 162t-3 145.5t-10 157.5l-3 41l-2 31q177 0 360 28l-8 -119h-9q-19 0 -75.5 1t-90.5 0.5t-50 -4.5q-4 -15 -15 -103q-1 -12 -2 -27t0 -15q97 -28 200 6l6 -104q-80 24 -201 -7q-14 -39 -9 -113t18 -116h16q80 0 178 13t141 39l-11 -128
q-62 0 -237 -14t-237 -14zM350 775q-9 -10 -23 -10q-38 0 -97 44t-59 77q0 14 16 25t30 11q24 0 60 -46q53 -62 73 -101z" />
    <glyph glyph-name="Eacute" unicode="&#xc9;" horiz-adv-x="545" 
d="M30 38q22 66 33 140t11 162t-3 145.5t-10 157.5l-3 41l-2 31q177 0 360 28l-8 -119h-9q-19 0 -75.5 1t-90.5 0.5t-50 -4.5q-4 -15 -15 -103q-1 -12 -2 -27t0 -15q97 -28 200 6l6 -104q-80 24 -201 -7q-14 -39 -9 -113t18 -116h16q80 0 178 13t141 39l-11 -128
q-62 0 -237 -14t-237 -14zM109 773q20 39 73 101q36 46 60 46q14 0 30 -11t16 -25q0 -33 -59 -77t-97 -44q-14 0 -23 10z" />
    <glyph glyph-name="Ecircumflex" unicode="&#xca;" horiz-adv-x="545" 
d="M30 38q22 66 33 140t11 162t-3 145.5t-10 157.5l-3 41l-2 31q177 0 360 28l-8 -119h-9q-19 0 -75.5 1t-90.5 0.5t-50 -4.5q-4 -15 -15 -103q-1 -12 -2 -27t0 -15q97 -28 200 6l6 -104q-80 24 -201 -7q-14 -39 -9 -113t18 -116h16q80 0 178 13t141 39l-11 -128
q-62 0 -237 -14t-237 -14zM156 792l-91 25q-1 0 12 10t33 27.5t40.5 38t38 45.5t23.5 46q2 0 11 -0.5t16 -1t14.5 -3t9.5 -5.5q32 -47 73.5 -100t58.5 -63q-85 -2 -87 -2l-3 1q-9 19 -18 34.5t-26.5 41t-25.5 37.5q-19 -52 -70 -126q-7 -7 -9 -5z" />
    <glyph glyph-name="Edieresis" unicode="&#xcb;" horiz-adv-x="545" 
d="M30 38q22 66 33 140t11 162t-3 145.5t-10 157.5l-3 41l-2 31q177 0 360 28l-8 -119h-9q-19 0 -75.5 1t-90.5 0.5t-50 -4.5q-4 -15 -15 -103q-1 -12 -2 -27t0 -15q97 -28 200 6l6 -104q-80 24 -201 -7q-14 -39 -9 -113t18 -116h16q80 0 178 13t141 39l-11 -128
q-62 0 -237 -14t-237 -14zM279 837q0 25 15.5 39t39.5 14q22 0 42 -15.5t20 -40.5q-11 -54 -60 -54q-57 14 -57 57zM85 822q0 24 15.5 44.5t38.5 20.5t38.5 -19t15.5 -44q0 -23 -14.5 -38t-36.5 -15t-39.5 14.5t-17.5 36.5z" />
    <glyph glyph-name="Igrave" unicode="&#xcc;" horiz-adv-x="234" 
d="M30 690l150 30q-11 -2 -16 -158.5t4.5 -325t35.5 -194.5l-154 -34q13 26 16.5 175.5t-6.5 307.5t-30 199zM207 837q-9 -10 -23 -10q-38 0 -97 44t-59 77q0 14 16 25t30 11q24 0 60 -46q53 -62 73 -101z" />
    <glyph glyph-name="Iacute" unicode="&#xcd;" horiz-adv-x="234" 
d="M30 690l150 30q-11 -2 -16 -158.5t4.5 -325t35.5 -194.5l-154 -34q13 26 16.5 175.5t-6.5 307.5t-30 199zM28 837q20 39 73 101q36 46 60 46q14 0 30 -11t16 -25q0 -33 -59 -77t-97 -44q-14 0 -23 10z" />
    <glyph glyph-name="Icircumflex" unicode="&#xce;" horiz-adv-x="234" 
d="M30 690l150 30q-11 -2 -16 -158.5t4.5 -325t35.5 -194.5l-154 -34q13 26 16.5 175.5t-6.5 307.5t-30 199zM45 836l-91 25q-1 0 12 10t33 27.5t40.5 38t38 45.5t23.5 46q2 0 11 -0.5t16 -1t14.5 -3t9.5 -5.5q32 -47 73.5 -100t58.5 -63q-85 -2 -87 -2l-3 1q-9 19 -18 34.5
t-26.5 41t-25.5 37.5q-19 -52 -70 -126q-7 -7 -9 -5z" />
    <glyph glyph-name="Idieresis" unicode="&#xcf;" horiz-adv-x="234" 
d="M30 690l150 30q-11 -2 -16 -158.5t4.5 -325t35.5 -194.5l-154 -34q13 26 16.5 175.5t-6.5 307.5t-30 199zM156 899q0 25 15.5 39t39.5 14q22 0 42 -15.5t20 -40.5q-11 -54 -60 -54q-57 14 -57 57zM-38 884q0 24 15.5 44.5t38.5 20.5t38.5 -19t15.5 -44q0 -23 -14.5 -38
t-36.5 -15t-39.5 14.5t-17.5 36.5z" />
    <glyph glyph-name="Eth" unicode="&#xd0;" horiz-adv-x="651" 
d="M58 372q0 9 0.5 17t1 14t1 11t1 8.5t0.5 6.5v4.5v2.5v2v1q8 -5 75 -5q-4 152 -14 175h-93l5 83l28 6q57 12 87.5 18t80.5 12t92.5 3.5t82.5 -12.5q96 -24 155.5 -101.5t59.5 -171.5q0 -141 -65.5 -244.5t-175 -155t-248.5 -51.5q-28 0 -45 5l-8 113l57 8q3 102 2 258
q-44 -2 -80 -7zM224 129h16q69 0 121.5 34.5t80 88.5t41 107t13.5 102q0 74 -50 115t-132 41q-43 0 -94 -4v-179q86 2 137 6l-3 -69l-24 2q-74 6 -110 7q0 -73 4 -235v-16z" />
    <glyph glyph-name="Ntilde" unicode="&#xd1;" horiz-adv-x="587" 
d="M178 76l-148 30q15 64 22.5 99.5t19.5 103.5t16 119.5t4.5 120.5t-6.5 134h119q21 -89 101 -224t142 -191q0 67 -5 229t-5 227v21q78 15 107 15q-11 -82 -13 -184.5t1 -164.5t12.5 -194t11.5 -169h-92q-12 18 -45.5 63t-72 95.5t-75.5 98.5t-60 78.5t-21 28.5
q-3 -45 -10.5 -121t-7.5 -98.5t5 -116.5zM218 757l-68 -9q-1 0 -1.5 15t2 36.5t10 43.5t26.5 39t47 20h6q14 0 27.5 -9t21.5 -18t22 -27l3 -4q25 -21 43 -14t27.5 25t11.5 40l57 5q0 -38 -32 -92t-73 -54q-24 0 -60 38t-50 38q-18 0 -24.5 -28t4.5 -45z" />
    <glyph glyph-name="Ograve" unicode="&#xd2;" horiz-adv-x="603" 
d="M31 495q8 109 83 191t195 82q72 0 126.5 -28.5t84.5 -75t42.5 -101.5t8.5 -113q-5 -70 -35 -129t-92 -99t-146 -40q-4 0 -27 0.5t-27 0.5q-111 29 -166 117t-47 195zM176 508q-6 -32 -0.5 -75.5t16.5 -83t44 -67t83 -27.5q103 0 116 180q5 29 0 72.5t-15 84t-40.5 69
t-76.5 28.5q-36 0 -62 -18t-39 -49t-18.5 -57.5t-7.5 -56.5zM391 837q-9 -10 -23 -10q-38 0 -97 44t-59 77q0 14 16 25t30 11q24 0 60 -46q53 -62 73 -101z" />
    <glyph glyph-name="Oacute" unicode="&#xd3;" horiz-adv-x="603" 
d="M31 495q8 109 83 191t195 82q72 0 126.5 -28.5t84.5 -75t42.5 -101.5t8.5 -113q-5 -70 -35 -129t-92 -99t-146 -40q-4 0 -27 0.5t-27 0.5q-111 29 -166 117t-47 195zM176 508q-6 -32 -0.5 -75.5t16.5 -83t44 -67t83 -27.5q103 0 116 180q5 29 0 72.5t-15 84t-40.5 69
t-76.5 28.5q-36 0 -62 -18t-39 -49t-18.5 -57.5t-7.5 -56.5zM212 837q20 39 73 101q36 46 60 46q14 0 30 -11t16 -25q0 -33 -59 -77t-97 -44q-14 0 -23 10z" />
    <glyph glyph-name="Ocircumflex" unicode="&#xd4;" horiz-adv-x="603" 
d="M31 495q8 109 83 191t195 82q72 0 126.5 -28.5t84.5 -75t42.5 -101.5t8.5 -113q-5 -70 -35 -129t-92 -99t-146 -40q-4 0 -27 0.5t-27 0.5q-111 29 -166 117t-47 195zM176 508q-6 -32 -0.5 -75.5t16.5 -83t44 -67t83 -27.5q103 0 116 180q5 29 0 72.5t-15 84t-40.5 69
t-76.5 28.5q-36 0 -62 -18t-39 -49t-18.5 -57.5t-7.5 -56.5zM229 836l-91 25q-1 0 12 10t33 27.5t40.5 38t38 45.5t23.5 46q2 0 11 -0.5t16 -1t14.5 -3t9.5 -5.5q32 -47 73.5 -100t58.5 -63q-85 -2 -87 -2l-3 1q-9 19 -18 34.5t-26.5 41t-25.5 37.5q-19 -52 -70 -126
q-7 -7 -9 -5z" />
    <glyph glyph-name="Otilde" unicode="&#xd5;" horiz-adv-x="603" 
d="M31 495q8 109 83 191t195 82q72 0 126.5 -28.5t84.5 -75t42.5 -101.5t8.5 -113q-5 -70 -35 -129t-92 -99t-146 -40q-4 0 -27 0.5t-27 0.5q-111 29 -166 117t-47 195zM176 508q-6 -32 -0.5 -75.5t16.5 -83t44 -67t83 -27.5q103 0 116 180q5 29 0 72.5t-15 84t-40.5 69
t-76.5 28.5q-36 0 -62 -18t-39 -49t-18.5 -57.5t-7.5 -56.5zM226 843l-68 -9q-1 0 -1.5 15t2 36.5t10 43.5t26.5 39t47 20h6q14 0 27.5 -9t21.5 -18t22 -27l3 -4q25 -21 43 -14t27.5 25t11.5 40l57 5q0 -38 -32 -92t-73 -54q-24 0 -60 38t-50 38q-18 0 -24.5 -28t4.5 -45z
" />
    <glyph glyph-name="Odieresis" unicode="&#xd6;" horiz-adv-x="603" 
d="M31 495q8 109 83 191t195 82q72 0 126.5 -28.5t84.5 -75t42.5 -101.5t8.5 -113q-5 -70 -35 -129t-92 -99t-146 -40q-4 0 -27 0.5t-27 0.5q-111 29 -166 117t-47 195zM176 508q-6 -32 -0.5 -75.5t16.5 -83t44 -67t83 -27.5q103 0 116 180q5 29 0 72.5t-15 84t-40.5 69
t-76.5 28.5q-36 0 -62 -18t-39 -49t-18.5 -57.5t-7.5 -56.5zM340 899q0 25 15.5 39t39.5 14q22 0 42 -15.5t20 -40.5q-11 -54 -60 -54q-57 14 -57 57zM146 884q0 24 15.5 44.5t38.5 20.5t38.5 -19t15.5 -44q0 -23 -14.5 -38t-36.5 -15t-39.5 14.5t-17.5 36.5z" />
    <glyph glyph-name="Oslash" unicode="&#xd8;" horiz-adv-x="602" 
d="M244 183l-12 -51h-44l16 64q-91 37 -135.5 120t-37.5 179q8 109 83 191t195 82q1 0 4 -0.5t5 -0.5l10 55h70l-15 -63q69 -18 114.5 -68t62 -111.5t11.5 -129.5q-5 -70 -35 -129t-92 -99t-146 -40q-4 0 -26.5 0.5t-27.5 0.5zM435 435q3 39 0 80t-21 89t-51 69l-99 -408
q27 -10 55 -10q103 0 116 180zM176 508q-12 -151 50 -216q24 113 77 397q-36 0 -62 -18t-39 -49t-18.5 -57.5t-7.5 -56.5z" />
    <glyph glyph-name="Ugrave" unicode="&#xd9;" horiz-adv-x="577" 
d="M30 692l149 21q-1 -24 -13.5 -91t-19.5 -126t-4.5 -121.5t35 -99.5t96.5 -37q60 0 93.5 42t39.5 103.5t-1.5 133.5t-21.5 129t-29 93q76 16 191 16q-1 -31 0 -86t1.5 -96.5t-3 -96t-11.5 -94.5t-26.5 -82t-45.5 -68.5t-70.5 -43.5t-100.5 -17q-115 0 -175.5 70.5
t-63.5 174.5q0 5 2 76.5t-2.5 127.5t-19.5 72zM378 837q-9 -10 -23 -10q-38 0 -97 44t-59 77q0 14 16 25t30 11q24 0 60 -46q53 -62 73 -101z" />
    <glyph glyph-name="Uacute" unicode="&#xda;" horiz-adv-x="577" 
d="M30 692l149 21q-1 -24 -13.5 -91t-19.5 -126t-4.5 -121.5t35 -99.5t96.5 -37q60 0 93.5 42t39.5 103.5t-1.5 133.5t-21.5 129t-29 93q76 16 191 16q-1 -31 0 -86t1.5 -96.5t-3 -96t-11.5 -94.5t-26.5 -82t-45.5 -68.5t-70.5 -43.5t-100.5 -17q-115 0 -175.5 70.5
t-63.5 174.5q0 5 2 76.5t-2.5 127.5t-19.5 72zM199 837q20 39 73 101q36 46 60 46q14 0 30 -11t16 -25q0 -33 -59 -77t-97 -44q-14 0 -23 10z" />
    <glyph glyph-name="Ucircumflex" unicode="&#xdb;" horiz-adv-x="577" 
d="M30 692l149 21q-1 -24 -13.5 -91t-19.5 -126t-4.5 -121.5t35 -99.5t96.5 -37q60 0 93.5 42t39.5 103.5t-1.5 133.5t-21.5 129t-29 93q76 16 191 16q-1 -31 0 -86t1.5 -96.5t-3 -96t-11.5 -94.5t-26.5 -82t-45.5 -68.5t-70.5 -43.5t-100.5 -17q-115 0 -175.5 70.5
t-63.5 174.5q0 5 2 76.5t-2.5 127.5t-19.5 72zM216 836l-91 25q-1 0 12 10t33 27.5t40.5 38t38 45.5t23.5 46q2 0 11 -0.5t16 -1t14.5 -3t9.5 -5.5q32 -47 73.5 -100t58.5 -63q-85 -2 -87 -2l-3 1q-9 19 -18 34.5t-26.5 41t-25.5 37.5q-19 -52 -70 -126q-7 -7 -9 -5z" />
    <glyph glyph-name="Udieresis" unicode="&#xdc;" horiz-adv-x="577" 
d="M30 692l149 21q-1 -24 -13.5 -91t-19.5 -126t-4.5 -121.5t35 -99.5t96.5 -37q60 0 93.5 42t39.5 103.5t-1.5 133.5t-21.5 129t-29 93q76 16 191 16q-1 -31 0 -86t1.5 -96.5t-3 -96t-11.5 -94.5t-26.5 -82t-45.5 -68.5t-70.5 -43.5t-100.5 -17q-115 0 -175.5 70.5
t-63.5 174.5q0 5 2 76.5t-2.5 127.5t-19.5 72zM327 899q0 25 15.5 39t39.5 14q22 0 42 -15.5t20 -40.5q-11 -54 -60 -54q-57 14 -57 57zM133 884q0 24 15.5 44.5t38.5 20.5t38.5 -19t15.5 -44q0 -23 -14.5 -38t-36.5 -15t-39.5 14.5t-17.5 36.5z" />
    <glyph glyph-name="Yacute" unicode="&#xdd;" horiz-adv-x="595" 
d="M30 158q0 58 19.5 85.5t69.5 27.5q45 0 70 -29t25 -83q0 -26 -9.5 -43t-20.5 -22t-22 -10.5t-13 -10.5q92 -66 110 10q23 99 -85 367q-44 107 -104 228l176 22v-1q-1 -9 -2 -22t1.5 -51.5t9.5 -83.5t25 -119.5t45 -158.5q35 106 50.5 159.5t31 144.5t19.5 192l139 13
l-162 -553q-69 -241 -222 -241q-63 0 -107 52t-44 127zM202 745q20 39 73 101q36 46 60 46q14 0 30 -11t16 -25q0 -33 -59 -77t-97 -44q-14 0 -23 10z" />
    <glyph glyph-name="Thorn" unicode="&#xde;" horiz-adv-x="474" 
d="M30 824l158 -10q-13 -4 -16 -200q48 30 122 30q67 0 103 -48t44 -119q3 -17 3 -49q0 -57 -17.5 -101.5t-46 -69t-63 -35t-71 -5t-67.5 25.5q10 -176 35 -201l-154 -34q13 26 14 209t-11.5 374.5t-32.5 232.5zM366 452q0 58 -26.5 92.5t-60 38t-65.5 -21.5t-42 -74
q0 -60 1 -90q9 -42 31.5 -72.5t49.5 -38.5t52.5 1.5t42.5 50.5t17 105v9z" />
    <glyph glyph-name="germandbls" unicode="&#xdf;" horiz-adv-x="599" 
d="M240 186q0 58 18 95t57 37q34 0 56.5 -30.5t22.5 -76.5q0 -38 -17 -58.5t-38.5 -14.5t-34.5 36q29 -105 68 -100q35 3 59 82q31 101 11 196q-24 110 -111 117h-10q-57 0 -90.5 -49.5t-39.5 -123.5t0.5 -154.5t24 -147.5t36.5 -97l-149 -31q-5 306 -20.5 506.5t-25.5 250
t-27 107.5q218 46 319 46q80 0 123.5 -34.5t52.5 -83.5q4 -16 4 -34q0 -77 -69 -117q55 -37 82 -101.5t27 -139.5q0 -18 -1 -26q-4 -52 -25.5 -106.5t-65.5 -98t-99 -43.5q-56 0 -97 56.5t-41 137.5zM174 636l7 -102q7 -12 47.5 -14t86.5 6.5t83 37t37 70.5v5q0 36 -27 60
t-65.5 29.5t-76.5 -1t-65 -31t-27 -60.5z" />
    <glyph glyph-name="agrave" unicode="&#xe0;" horiz-adv-x="514" 
d="M39 92q-15 64 -3.5 112.5t46 81t80.5 48t101 13.5t106 -23q0 27 -1 48t-5 52t-13 53t-23 43.5t-37.5 33t-54.5 11.5q-38 0 -67 -23.5t-29 -62.5q0 -34 40 -34q0 19 2 30t11.5 20.5t27.5 9.5q19 0 31.5 -12t12.5 -31q0 -35 -23 -51.5t-60 -16.5q-39 0 -66 22t-27 61
q0 67 57.5 107.5t126.5 40.5q42 0 83.5 -14.5t73 -47.5t31.5 -77q0 -54 10 -241t14 -220v-5q-112 -14 -124 -14v71q-47 -52 -117.5 -74t-130 0.5t-73.5 88.5zM139 177q0 -39 17.5 -69t53.5 -30q53 0 109.5 39t56.5 88q0 38 -39 65.5t-82 27.5q-55 0 -85.5 -33t-30.5 -88z
M346 670q-9 -10 -23 -10q-38 0 -97 44t-59 77q0 14 16 25t30 11q24 0 60 -46q53 -62 73 -101z" />
    <glyph glyph-name="aacute" unicode="&#xe1;" horiz-adv-x="514" 
d="M39 92q-15 64 -3.5 112.5t46 81t80.5 48t101 13.5t106 -23q0 27 -1 48t-5 52t-13 53t-23 43.5t-37.5 33t-54.5 11.5q-38 0 -67 -23.5t-29 -62.5q0 -34 40 -34q0 19 2 30t11.5 20.5t27.5 9.5q19 0 31.5 -12t12.5 -31q0 -35 -23 -51.5t-60 -16.5q-39 0 -66 22t-27 61
q0 67 57.5 107.5t126.5 40.5q42 0 83.5 -14.5t73 -47.5t31.5 -77q0 -54 10 -241t14 -220v-5q-112 -14 -124 -14v71q-47 -52 -117.5 -74t-130 0.5t-73.5 88.5zM139 177q0 -39 17.5 -69t53.5 -30q53 0 109.5 39t56.5 88q0 38 -39 65.5t-82 27.5q-55 0 -85.5 -33t-30.5 -88z
M155 666q20 39 73 101q36 46 60 46q14 0 30 -11t16 -25q0 -33 -59 -77t-97 -44q-14 0 -23 10z" />
    <glyph glyph-name="acircumflex" unicode="&#xe2;" horiz-adv-x="514" 
d="M39 92q-15 64 -3.5 112.5t46 81t80.5 48t101 13.5t106 -23q0 27 -1 48t-5 52t-13 53t-23 43.5t-37.5 33t-54.5 11.5q-38 0 -67 -23.5t-29 -62.5q0 -34 40 -34q0 19 2 30t11.5 20.5t27.5 9.5q19 0 31.5 -12t12.5 -31q0 -35 -23 -51.5t-60 -16.5q-39 0 -66 22t-27 61
q0 67 57.5 107.5t126.5 40.5q42 0 83.5 -14.5t73 -47.5t31.5 -77q0 -54 10 -241t14 -220v-5q-112 -14 -124 -14v71q-47 -52 -117.5 -74t-130 0.5t-73.5 88.5zM139 177q0 -39 17.5 -69t53.5 -30q53 0 109.5 39t56.5 88q0 38 -39 65.5t-82 27.5q-55 0 -85.5 -33t-30.5 -88z
M184 637l-91 25q-1 0 12 10t33 27.5t40.5 38t38 45.5t23.5 46q2 0 11 -0.5t16 -1t14.5 -3t9.5 -5.5q32 -47 73.5 -100t58.5 -63q-85 -2 -87 -2l-3 1q-9 19 -18 34.5t-26.5 41t-25.5 37.5q-19 -52 -70 -126q-7 -7 -9 -5z" />
    <glyph glyph-name="atilde" unicode="&#xe3;" horiz-adv-x="514" 
d="M39 92q-15 64 -3.5 112.5t46 81t80.5 48t101 13.5t106 -23q0 27 -1 48t-5 52t-13 53t-23 43.5t-37.5 33t-54.5 11.5q-38 0 -67 -23.5t-29 -62.5q0 -34 40 -34q0 19 2 30t11.5 20.5t27.5 9.5q19 0 31.5 -12t12.5 -31q0 -35 -23 -51.5t-60 -16.5q-39 0 -66 22t-27 61
q0 67 57.5 107.5t126.5 40.5q42 0 83.5 -14.5t73 -47.5t31.5 -77q0 -54 10 -241t14 -220v-5q-112 -14 -124 -14v71q-47 -52 -117.5 -74t-130 0.5t-73.5 88.5zM139 177q0 -39 17.5 -69t53.5 -30q53 0 109.5 39t56.5 88q0 38 -39 65.5t-82 27.5q-55 0 -85.5 -33t-30.5 -88z
M183 660l-68 -9q-1 0 -1.5 15t2 36.5t10 43.5t26.5 39t47 20h6q14 0 27.5 -9t21.5 -18t22 -27l3 -4q25 -21 43 -14t27.5 25t11.5 40l57 5q0 -38 -32 -92t-73 -54q-24 0 -60 38t-50 38q-18 0 -24.5 -28t4.5 -45z" />
    <glyph glyph-name="adieresis" unicode="&#xe4;" horiz-adv-x="514" 
d="M39 92q-15 64 -3.5 112.5t46 81t80.5 48t101 13.5t106 -23q0 27 -1 48t-5 52t-13 53t-23 43.5t-37.5 33t-54.5 11.5q-38 0 -67 -23.5t-29 -62.5q0 -34 40 -34q0 19 2 30t11.5 20.5t27.5 9.5q19 0 31.5 -12t12.5 -31q0 -35 -23 -51.5t-60 -16.5q-39 0 -66 22t-27 61
q0 67 57.5 107.5t126.5 40.5q42 0 83.5 -14.5t73 -47.5t31.5 -77q0 -54 10 -241t14 -220v-5q-112 -14 -124 -14v71q-47 -52 -117.5 -74t-130 0.5t-73.5 88.5zM139 177q0 -39 17.5 -69t53.5 -30q53 0 109.5 39t56.5 88q0 38 -39 65.5t-82 27.5q-55 0 -85.5 -33t-30.5 -88z
M295 724q0 25 15.5 39t39.5 14q22 0 42 -15.5t20 -40.5q-11 -54 -60 -54q-57 14 -57 57zM101 709q0 24 15.5 44.5t38.5 20.5t38.5 -19t15.5 -44q0 -23 -14.5 -38t-36.5 -15t-39.5 14.5t-17.5 36.5z" />
    <glyph glyph-name="aring" unicode="&#xe5;" horiz-adv-x="514" 
d="M39 92q-15 64 -3.5 112.5t46 81t80.5 48t101 13.5t106 -23q0 27 -1 48t-5 52t-13 53t-23 43.5t-37.5 33t-54.5 11.5q-38 0 -67 -23.5t-29 -62.5q0 -34 40 -34q0 19 2 30t11.5 20.5t27.5 9.5q19 0 31.5 -12t12.5 -31q0 -35 -23 -51.5t-60 -16.5q-39 0 -66 22t-27 61
q0 67 57.5 107.5t126.5 40.5q42 0 83.5 -14.5t73 -47.5t31.5 -77q0 -54 10 -241t14 -220v-5q-112 -14 -124 -14v71q-47 -52 -117.5 -74t-130 0.5t-73.5 88.5zM139 177q0 -39 17.5 -69t53.5 -30q53 0 109.5 39t56.5 88q0 38 -39 65.5t-82 27.5q-55 0 -85.5 -33t-30.5 -88z
M121 778q0 91 115 127q62 13 109 -31t47 -109t-68 -97q-67 -31 -135 4.5t-68 105.5zM199 782q0 -27 20.5 -49t48.5 -22q26 0 41.5 20.5t15.5 46.5q0 43 -36 67.5t-69 -5.5q-21 -24 -21 -58z" />
    <glyph glyph-name="ae" unicode="&#xe6;" horiz-adv-x="816" 
d="M371 326q0 14 1 21q-5 218 -134 218q-38 0 -67 -23.5t-29 -62.5q0 -34 40 -34q0 19 2 30t11.5 20.5t27.5 9.5q19 0 31.5 -12t12.5 -31q0 -35 -23 -51.5t-60 -16.5q-39 0 -66 22t-27 61q0 67 57.5 107.5t126.5 40.5q53 0 105.5 -24.5t72.5 -68.5q57 57 129 57
q46 0 81.5 -20t56.5 -54.5t33 -73.5t16 -84l-287 -64q0 -100 44 -178q22 -40 69 -50t86 15t40 76v4q-17 -21 -52 -21q-33 0 -52 17.5t-19 49.5q3 34 27.5 61t56.5 27h6q43 0 70.5 -24.5t27.5 -66.5q0 -80 -45.5 -140t-122.5 -60h-9q-132 0 -194 126l-52 -52
q-47 -52 -117.5 -74t-131 0t-76.5 88q-14 64 -2 112.5t47 81t81 48.5t101 14.5t106 -21.5zM142 177q0 -39 17.5 -69t53.5 -30q53 0 109.5 39t56.5 88q0 38 -39 65.5t-82 27.5q-55 0 -85.5 -33t-30.5 -88zM593 507q-45 0 -75 -51.5t-30 -100.5l201 28q0 41 -28.5 82.5
t-67.5 41.5z" />
    <glyph glyph-name="ccedilla" unicode="&#xe7;" horiz-adv-x="523" 
d="M175 -154q0 52 50 52q19 0 32 -11t13 -28q0 -28 -33 -38q30 -15 51 8t21 57q0 20 -6 33.5t-13 20.5t-24 10.5t-28.5 4t-36.5 0.5q-5 0 -7 3q0 8 3 37t4 39q-74 26 -118 91t-51 152q-1 10 -1 29q0 72 27 137.5t86 110.5t138 45q169 0 181 -135q0 -134 -112 -134
q-29 0 -57 19t-28 49q0 18 14 34t33 16q22 0 33.5 -16.5t17.5 -33t15 -16.5q36 0 31 53q-4 43 -34 71t-75 28q-48 0 -79.5 -47.5t-37.5 -115t3 -135.5t41.5 -115.5t78.5 -47.5q58 0 99 47.5t41 107.5q0 9 11 13.5t22.5 -1t12.5 -21.5q0 -88 -56 -143t-150 -55q-17 0 -25 1
v-27q0 -1 0.5 -3t0.5 -3q8 -2 29.5 -5.5t32 -7t25 -11.5t20.5 -23t6 -37q0 -53 -62 -90q-57 -34 -102 -21q-37 11 -37 52z" />
    <glyph glyph-name="egrave" unicode="&#xe8;" horiz-adv-x="475" 
d="M30 332q0 96 59 179.5t152 83.5q46 0 81.5 -20t56.5 -54.5t33 -73.5t16 -84l-287 -64q0 -100 44 -178q22 -40 69 -50t86 15t40 76v4q-17 -21 -52 -21q-33 0 -52 17.5t-19 49.5q3 34 27.5 61t56.5 27h6q43 0 70.5 -24.5t27.5 -66.5q0 -80 -45.5 -140t-122.5 -60h-9
q-63 0 -110 28.5t-73 77.5t-39.5 102.5t-15.5 114.5zM252 513q-45 0 -75 -51.5t-30 -100.5l201 28q0 41 -28.5 82.5t-67.5 41.5zM327 638q-9 -10 -23 -10q-38 0 -97 44t-59 77q0 14 16 25t30 11q24 0 60 -46q53 -62 73 -101z" />
    <glyph glyph-name="eacute" unicode="&#xe9;" horiz-adv-x="475" 
d="M30 332q0 96 59 179.5t152 83.5q46 0 81.5 -20t56.5 -54.5t33 -73.5t16 -84l-287 -64q0 -100 44 -178q22 -40 69 -50t86 15t40 76v4q-17 -21 -52 -21q-33 0 -52 17.5t-19 49.5q3 34 27.5 61t56.5 27h6q43 0 70.5 -24.5t27.5 -66.5q0 -80 -45.5 -140t-122.5 -60h-9
q-63 0 -110 28.5t-73 77.5t-39.5 102.5t-15.5 114.5zM252 513q-45 0 -75 -51.5t-30 -100.5l201 28q0 41 -28.5 82.5t-67.5 41.5zM148 638q20 39 73 101q36 46 60 46q14 0 30 -11t16 -25q0 -33 -59 -77t-97 -44q-14 0 -23 10z" />
    <glyph glyph-name="ecircumflex" unicode="&#xea;" horiz-adv-x="475" 
d="M30 332q0 96 59 179.5t152 83.5q46 0 81.5 -20t56.5 -54.5t33 -73.5t16 -84l-287 -64q0 -100 44 -178q22 -40 69 -50t86 15t40 76v4q-17 -21 -52 -21q-33 0 -52 17.5t-19 49.5q3 34 27.5 61t56.5 27h6q43 0 70.5 -24.5t27.5 -66.5q0 -80 -45.5 -140t-122.5 -60h-9
q-63 0 -110 28.5t-73 77.5t-39.5 102.5t-15.5 114.5zM252 513q-45 0 -75 -51.5t-30 -100.5l201 28q0 41 -28.5 82.5t-67.5 41.5zM165 637l-91 25q-1 0 12 10t33 27.5t40.5 38t38 45.5t23.5 46q2 0 11 -0.5t16 -1t14.5 -3t9.5 -5.5q32 -47 73.5 -100t58.5 -63q-85 -2 -87 -2
l-3 1q-9 19 -18 34.5t-26.5 41t-25.5 37.5q-19 -52 -70 -126q-7 -7 -9 -5z" />
    <glyph glyph-name="edieresis" unicode="&#xeb;" horiz-adv-x="475" 
d="M30 332q0 96 59 179.5t152 83.5q46 0 81.5 -20t56.5 -54.5t33 -73.5t16 -84l-287 -64q0 -100 44 -178q22 -40 69 -50t86 15t40 76v4q-17 -21 -52 -21q-33 0 -52 17.5t-19 49.5q3 34 27.5 61t56.5 27h6q43 0 70.5 -24.5t27.5 -66.5q0 -80 -45.5 -140t-122.5 -60h-9
q-63 0 -110 28.5t-73 77.5t-39.5 102.5t-15.5 114.5zM252 513q-45 0 -75 -51.5t-30 -100.5l201 28q0 41 -28.5 82.5t-67.5 41.5zM276 700q0 25 15.5 39t39.5 14q22 0 42 -15.5t20 -40.5q-11 -54 -60 -54q-57 14 -57 57zM82 685q0 24 15.5 44.5t38.5 20.5t38.5 -19t15.5 -44
q0 -23 -14.5 -38t-36.5 -15t-39.5 14.5t-17.5 36.5z" />
    <glyph glyph-name="igrave" unicode="&#xec;" horiz-adv-x="275" 
d="M90 12q14 73 15 143t-4.5 116t-14 109.5t-10.5 107.5h141q-14 -56 -15 -122t4.5 -117t14 -122t10.5 -115h-141zM227 638q-9 -10 -23 -10q-38 0 -97 44t-59 77q0 14 16 25t30 11q24 0 60 -46q53 -62 73 -101z" />
    <glyph glyph-name="iacute" unicode="&#xed;" horiz-adv-x="275" 
d="M90 12q14 73 15 143t-4.5 116t-14 109.5t-10.5 107.5h141q-14 -56 -15 -122t4.5 -117t14 -122t10.5 -115h-141zM48 638q20 39 73 101q36 46 60 46q14 0 30 -11t16 -25q0 -33 -59 -77t-97 -44q-14 0 -23 10z" />
    <glyph glyph-name="icircumflex" unicode="&#xee;" horiz-adv-x="275" 
d="M90 12q14 73 15 143t-4.5 116t-14 109.5t-10.5 107.5h141q-14 -56 -15 -122t4.5 -117t14 -122t10.5 -115h-141zM65 637l-91 25q-1 0 12 10t33 27.5t40.5 38t38 45.5t23.5 46q2 0 11 -0.5t16 -1t14.5 -3t9.5 -5.5q32 -47 73.5 -100t58.5 -63q-85 -2 -87 -2l-3 1
q-9 19 -18 34.5t-26.5 41t-25.5 37.5q-19 -52 -70 -126q-7 -7 -9 -5z" />
    <glyph glyph-name="idieresis" unicode="&#xef;" horiz-adv-x="275" 
d="M90 12q14 73 15 143t-4.5 116t-14 109.5t-10.5 107.5h141q-14 -56 -15 -122t4.5 -117t14 -122t10.5 -115h-141zM176 700q0 25 15.5 39t39.5 14q22 0 42 -15.5t20 -40.5q-11 -54 -60 -54q-57 14 -57 57zM-18 685q0 24 15.5 44.5t38.5 20.5t38.5 -19t15.5 -44
q0 -23 -14.5 -38t-36.5 -15t-39.5 14.5t-17.5 36.5z" />
    <glyph glyph-name="eth" unicode="&#xf0;" horiz-adv-x="530" 
d="M65 175q0 3 -0.5 10t-0.5 11q0 158 124 207q18 7 58 7h6q87 0 145 -72q1 -2 10 -15t10 -15l1 -1q1 -1 1 -2q-4 61 -7.5 94.5t-13.5 87.5t-30.5 96.5t-52.5 77.5q-6 2 -8 2q-3 0 -18 -43t-22 -43q-12 0 -28 4t-17 14v4l28 77l-1 5q-44 10 -91.5 -15t-47.5 -66
q0 -1 10 -6.5t20 -18.5t11 -32v-4q0 -27 -17.5 -49.5t-41.5 -22.5q-25 0 -42.5 15t-19.5 41q16 120 67 167.5t144 47.5q5 0 14 -0.5t13 -0.5q4 3 4 7q2 5 6.5 21t9 27t10.5 19q2 3 13 3q8 0 25 -9t17 -17l-21 -61q46 -20 104 -112t63 -173q1 -12 1 -38q0 -55 -8 -110
t-27 -111t-47.5 -99t-73 -70t-99.5 -27q-77 0 -126.5 51.5t-53.5 136.5zM174 160q3 -49 24.5 -72.5t67.5 -23.5q53 0 82 34.5t29 89.5v13q-3 49 -35.5 87.5t-77.5 38.5q-99 0 -90 -167z" />
    <glyph glyph-name="ntilde" unicode="&#xf1;" horiz-adv-x="504" 
d="M30 64q18 137 17.5 217t-17.5 219l104 7l5 -50l11 12q26 27 40 38.5t40 21t61 9.5q68 0 111 -42t58 -106t13.5 -141.5t-16.5 -149t-38 -126.5l-85 18q28 110 30 226q5 213 -108 213q-36 0 -59 -21t-32 -59.5t-11 -63.5t-2 -63v-13q18 -129 33 -171l-154 22q-1 2 -1 3z
M154 580l-68 -9q-1 0 -1.5 15t2 36.5t10 43.5t26.5 39t47 20h6q14 0 27.5 -9t21.5 -18t22 -27l3 -4q25 -21 43 -14t27.5 25t11.5 40l57 5q0 -38 -32 -92t-73 -54q-24 0 -60 38t-50 38q-18 0 -24.5 -28t4.5 -45z" />
    <glyph glyph-name="ograve" unicode="&#xf2;" horiz-adv-x="510" 
d="M30 278q0 300 258 300q59 0 101 -33.5t61 -81t26 -106.5q4 -31 4 -65q0 -111 -46.5 -184t-112.5 -88t-132 3t-112.5 88t-46.5 167zM126 316q0 -70 26 -126t63.5 -76t75 -14t63.5 62t26 150v11q0 67 -26 112t-63.5 54.5t-75 -2t-63.5 -58t-26 -113.5zM344 638
q-9 -10 -23 -10q-38 0 -97 44t-59 77q0 14 16 25t30 11q24 0 60 -46q53 -62 73 -101z" />
    <glyph glyph-name="oacute" unicode="&#xf3;" horiz-adv-x="510" 
d="M30 278q0 300 258 300q59 0 101 -33.5t61 -81t26 -106.5q4 -31 4 -65q0 -111 -46.5 -184t-112.5 -88t-132 3t-112.5 88t-46.5 167zM126 316q0 -70 26 -126t63.5 -76t75 -14t63.5 62t26 150v11q0 67 -26 112t-63.5 54.5t-75 -2t-63.5 -58t-26 -113.5zM165 638
q20 39 73 101q36 46 60 46q14 0 30 -11t16 -25q0 -33 -59 -77t-97 -44q-14 0 -23 10z" />
    <glyph glyph-name="ocircumflex" unicode="&#xf4;" horiz-adv-x="510" 
d="M30 278q0 300 258 300q59 0 101 -33.5t61 -81t26 -106.5q4 -31 4 -65q0 -111 -46.5 -184t-112.5 -88t-132 3t-112.5 88t-46.5 167zM126 316q0 -70 26 -126t63.5 -76t75 -14t63.5 62t26 150v11q0 67 -26 112t-63.5 54.5t-75 -2t-63.5 -58t-26 -113.5zM182 637l-91 25
q-1 0 12 10t33 27.5t40.5 38t38 45.5t23.5 46q2 0 11 -0.5t16 -1t14.5 -3t9.5 -5.5q32 -47 73.5 -100t58.5 -63q-85 -2 -87 -2l-3 1q-9 19 -18 34.5t-26.5 41t-25.5 37.5q-19 -52 -70 -126q-7 -7 -9 -5z" />
    <glyph glyph-name="otilde" unicode="&#xf5;" horiz-adv-x="510" 
d="M30 278q0 300 258 300q59 0 101 -33.5t61 -81t26 -106.5q4 -31 4 -65q0 -111 -46.5 -184t-112.5 -88t-132 3t-112.5 88t-46.5 167zM126 316q0 -70 26 -126t63.5 -76t75 -14t63.5 62t26 150v11q0 67 -26 112t-63.5 54.5t-75 -2t-63.5 -58t-26 -113.5zM179 644l-68 -9
q-1 0 -1.5 15t2 36.5t10 43.5t26.5 39t47 20h6q14 0 27.5 -9t21.5 -18t22 -27l3 -4q25 -21 43 -14t27.5 25t11.5 40l57 5q0 -38 -32 -92t-73 -54q-24 0 -60 38t-50 38q-18 0 -24.5 -28t4.5 -45z" />
    <glyph glyph-name="odieresis" unicode="&#xf6;" horiz-adv-x="510" 
d="M30 278q0 300 258 300q59 0 101 -33.5t61 -81t26 -106.5q4 -31 4 -65q0 -111 -46.5 -184t-112.5 -88t-132 3t-112.5 88t-46.5 167zM126 316q0 -70 26 -126t63.5 -76t75 -14t63.5 62t26 150v11q0 67 -26 112t-63.5 54.5t-75 -2t-63.5 -58t-26 -113.5zM293 700
q0 25 15.5 39t39.5 14q22 0 42 -15.5t20 -40.5q-11 -54 -60 -54q-57 14 -57 57zM99 685q0 24 15.5 44.5t38.5 20.5t38.5 -19t15.5 -44q0 -23 -14.5 -38t-36.5 -15t-39.5 14.5t-17.5 36.5z" />
    <glyph glyph-name="oslash" unicode="&#xf8;" horiz-adv-x="510" 
d="M196 -65l-39 8q5 4 25 83q-67 26 -109.5 91.5t-42.5 160.5q0 297 253 300l17 104l60 -4v-1l-24 -106q43 -12 73.5 -46.5t45.5 -76t21 -91.5q4 -31 4 -65q0 -79 -24 -139t-62.5 -92t-85.5 -44t-94 -1zM141 328q0 -128 63 -193q28 143 66 368q-48 15 -88.5 -32.5
t-40.5 -142.5zM354 332q0 92 -40 140l-79 -359q21 -12 42.5 -3t38.5 31t27.5 69t10.5 111v11z" />
    <glyph glyph-name="ugrave" unicode="&#xf9;" horiz-adv-x="522" 
d="M409 28l-19 59q-56 -51 -116 -59.5t-105.5 20t-76 85t-32.5 128.5q0 2 -0.5 27t-1 43.5t-2.5 48t-5 50.5t-8.5 40t-12.5 26l164 18q1 -22 -10.5 -77.5t-19.5 -107.5t-7.5 -104t28 -84t84.5 -32q54 0 81.5 34.5t29.5 84.5t-9 110t-26.5 106.5t-30.5 78.5q70 13 160 13
q-8 -84 -11 -126t2.5 -147.5t26.5 -223.5zM350 638q-9 -10 -23 -10q-38 0 -97 44t-59 77q0 14 16 25t30 11q24 0 60 -46q53 -62 73 -101z" />
    <glyph glyph-name="uacute" unicode="&#xfa;" horiz-adv-x="522" 
d="M409 28l-19 59q-56 -51 -116 -59.5t-105.5 20t-76 85t-32.5 128.5q0 2 -0.5 27t-1 43.5t-2.5 48t-5 50.5t-8.5 40t-12.5 26l164 18q1 -22 -10.5 -77.5t-19.5 -107.5t-7.5 -104t28 -84t84.5 -32q54 0 81.5 34.5t29.5 84.5t-9 110t-26.5 106.5t-30.5 78.5q70 13 160 13
q-8 -84 -11 -126t2.5 -147.5t26.5 -223.5zM171 638q20 39 73 101q36 46 60 46q14 0 30 -11t16 -25q0 -33 -59 -77t-97 -44q-14 0 -23 10z" />
    <glyph glyph-name="ucircumflex" unicode="&#xfb;" horiz-adv-x="522" 
d="M409 28l-19 59q-56 -51 -116 -59.5t-105.5 20t-76 85t-32.5 128.5q0 2 -0.5 27t-1 43.5t-2.5 48t-5 50.5t-8.5 40t-12.5 26l164 18q1 -22 -10.5 -77.5t-19.5 -107.5t-7.5 -104t28 -84t84.5 -32q54 0 81.5 34.5t29.5 84.5t-9 110t-26.5 106.5t-30.5 78.5q70 13 160 13
q-8 -84 -11 -126t2.5 -147.5t26.5 -223.5zM188 637l-91 25q-1 0 12 10t33 27.5t40.5 38t38 45.5t23.5 46q2 0 11 -0.5t16 -1t14.5 -3t9.5 -5.5q32 -47 73.5 -100t58.5 -63q-85 -2 -87 -2l-3 1q-9 19 -18 34.5t-26.5 41t-25.5 37.5q-19 -52 -70 -126q-7 -7 -9 -5z" />
    <glyph glyph-name="udieresis" unicode="&#xfc;" horiz-adv-x="522" 
d="M409 28l-19 59q-56 -51 -116 -59.5t-105.5 20t-76 85t-32.5 128.5q0 2 -0.5 27t-1 43.5t-2.5 48t-5 50.5t-8.5 40t-12.5 26l164 18q1 -22 -10.5 -77.5t-19.5 -107.5t-7.5 -104t28 -84t84.5 -32q54 0 81.5 34.5t29.5 84.5t-9 110t-26.5 106.5t-30.5 78.5q70 13 160 13
q-8 -84 -11 -126t2.5 -147.5t26.5 -223.5zM299 700q0 25 15.5 39t39.5 14q22 0 42 -15.5t20 -40.5q-11 -54 -60 -54q-57 14 -57 57zM105 685q0 24 15.5 44.5t38.5 20.5t38.5 -19t15.5 -44q0 -23 -14.5 -38t-36.5 -15t-39.5 14.5t-17.5 36.5z" />
    <glyph glyph-name="yacute" unicode="&#xfd;" horiz-adv-x="457" 
d="M70 -52q0 31 18.5 51t45.5 23.5t54 -1t45.5 -22t18.5 -41.5q0 -44 -19 -64t-61 -36q80 -60 128 45q42 91 39 232q-2 79 -19 123q1 -29 -10 -49.5t-31 -29t-36 -11.5t-34 -3q-59 0 -104 39t-62.5 95t-8.5 121t49 113l123 -11q-27 -20 -47 -64t-24.5 -88.5t19.5 -78.5
t76 -34q30 0 48 17t22.5 47t3.5 61.5t-9 69t-14 61t-13 45.5l153 38v-11q0 -16 2.5 -116.5t3 -183t-5 -181t-19.5 -148.5q-13 -47 -51 -86.5t-85 -56t-91.5 -14.5t-74.5 41t-30 108zM139 638q20 39 73 101q36 46 60 46q14 0 30 -11t16 -25q0 -33 -59 -77t-97 -44
q-14 0 -23 10z" />
    <glyph glyph-name="thorn" unicode="&#xfe;" horiz-adv-x="382" 
d="M96 0l-66 743l171 30q-27 -143 -38 -257q23 13 46 13q50 0 90 -22.5t48 -68.5q7 -39 3 -110q-4 -70 -63 -110t-124 -23q9 -91 33 -196zM159 317q0 -75 51 -75q30 0 46.5 58t7.5 115.5t-41 57.5q-4 0 -7 -1q-43 -2 -57 -142v-13z" />
    <glyph glyph-name="ydieresis" unicode="&#xff;" horiz-adv-x="457" 
d="M70 -52q0 31 18.5 51t45.5 23.5t54 -1t45.5 -22t18.5 -41.5q0 -44 -19 -64t-61 -36q80 -60 128 45q42 91 39 232q-2 79 -19 123q1 -29 -10 -49.5t-31 -29t-36 -11.5t-34 -3q-59 0 -104 39t-62.5 95t-8.5 121t49 113l123 -11q-27 -20 -47 -64t-24.5 -88.5t19.5 -78.5
t76 -34q30 0 48 17t22.5 47t3.5 61.5t-9 69t-14 61t-13 45.5l153 38v-11q0 -16 2.5 -116.5t3 -183t-5 -181t-19.5 -148.5q-13 -47 -51 -86.5t-85 -56t-91.5 -14.5t-74.5 41t-30 108zM261 662q0 25 15.5 39t39.5 14q22 0 42 -15.5t20 -40.5q-11 -54 -60 -54q-57 14 -57 57z
M67 647q0 24 15.5 44.5t38.5 20.5t38.5 -19t15.5 -44q0 -23 -14.5 -38t-36.5 -15t-39.5 14.5t-17.5 36.5z" />
    <glyph glyph-name="dotlessi" unicode="&#x131;" horiz-adv-x="275" 
d="M90 12q14 73 15 143t-4.5 116t-14 109.5t-10.5 107.5h141q-14 -56 -15 -122t4.5 -117t14 -122t10.5 -115h-141z" />
    <glyph glyph-name="OE" unicode="&#x152;" horiz-adv-x="888" 
d="M373 70q20 60 31 131q-49 -19 -106 -19q-4 0 -27 0.5t-27 0.5q-111 29 -166 117t-47 195q8 109 83 191t195 82q59 0 109 -21q167 1 341 28l-8 -119h-9q-19 0 -75.5 1t-90.5 0.5t-50 -4.5q-4 -15 -15 -103q-1 -12 -2 -27t0 -15q97 -28 200 6l6 -104q-80 24 -201 -7
q-14 -39 -9 -113t18 -116h16q80 0 178 13t141 39l-11 -128q-63 0 -237 -14t-237 -14zM176 508q-6 -32 -0.5 -75.5t16.5 -83t44 -67t83 -27.5q69 0 97 79q4 97 -8 286q-34 69 -105 69q-36 0 -62 -18t-39 -49t-18.5 -57.5t-7.5 -56.5z" />
    <glyph glyph-name="oe" unicode="&#x153;" horiz-adv-x="715" 
d="M288 578q24 0 57 -11t49 -30q40 24 87 24q46 0 81.5 -20t56.5 -54.5t33 -73.5t16 -84l-287 -64q0 -100 44 -178q22 -40 69 -50t86 15t40 76v4q-17 -21 -52 -21q-33 0 -52 17.5t-19 49.5q3 34 27.5 61t56.5 27h6q43 0 70.5 -24.5t27.5 -66.5q0 -80 -45.5 -140t-122.5 -60
h-9q-91 0 -150 62q-40 -22 -85.5 -25t-88 13.5t-77.5 49t-56 85.5t-21 118q0 300 258 300zM270 298q0 92 53 172q-28 23 -62.5 24.5t-64 -17t-50 -61t-20.5 -100.5t18 -107t45.5 -75t60 -35.5t60.5 10.5q-37 80 -40 189zM492 479q-45 0 -75 -51.5t-30 -100.5l201 28
q0 41 -28.5 82.5t-67.5 41.5z" />
    <glyph glyph-name="Ydieresis" unicode="&#x178;" horiz-adv-x="595" 
d="M30 158q0 58 19.5 85.5t69.5 27.5q45 0 70 -29t25 -83q0 -26 -9.5 -43t-20.5 -22t-22 -10.5t-13 -10.5q92 -66 110 10q23 99 -85 367q-44 107 -104 228l176 22v-1q-1 -9 -2 -22t1.5 -51.5t9.5 -83.5t25 -119.5t45 -158.5q35 106 50.5 159.5t31 144.5t19.5 192l139 13
l-162 -553q-69 -241 -222 -241q-63 0 -107 52t-44 127zM342 843q0 25 15.5 39t39.5 14q22 0 42 -15.5t20 -40.5q-11 -54 -60 -54q-57 14 -57 57zM148 828q0 24 15.5 44.5t38.5 20.5t38.5 -19t15.5 -44q0 -23 -14.5 -38t-36.5 -15t-39.5 14.5t-17.5 36.5z" />
    <glyph glyph-name="florin" unicode="&#x192;" horiz-adv-x="518" 
d="M38 370l-8 90l56 6q0 8 -0.5 25t-0.5 26q0 67 5.5 117.5t20.5 96t40.5 74t66 45t95.5 16.5q88 0 135.5 -48.5t37.5 -135.5q-6 -47 -52 -73t-90 -11t-44 68q0 65 41 76t75 -42q14 52 -12 77.5t-80 25.5h-9q-129 -14 -135 -329l116 8l-20 -90l-94 8q10 -243 23 -345l50 4
l41 -100l-247 -25l1 99l56 9q0 15 -16 340z" />
    <glyph glyph-name="quoteleft" unicode="&#x2018;" horiz-adv-x="154" 
d="M68 868l46 -3q-3 -15 1.5 -166.5t8.5 -151.5q-3 0 -45 4.5t-48 4.5q-1 1 -1 3q0 12 19 143t19 159v7z" />
    <glyph glyph-name="quoteright" unicode="&#x2019;" horiz-adv-x="154" 
d="M86 547l-46 3q3 15 -1.5 166.5t-8.5 151.5q3 0 45 -4.5t48 -4.5q1 -1 1 -3q0 -12 -19 -143t-19 -159v-7z" />
    <glyph glyph-name="quotesinglbase" unicode="&#x201a;" horiz-adv-x="154" 
d="M86 -75l-46 3q3 15 -1.5 166.5t-8.5 151.5q3 0 45 -4.5t48 -4.5q1 -1 1 -3q0 -12 -19 -143t-19 -159v-7z" />
    <glyph glyph-name="quotedblleft" unicode="&#x201c;" horiz-adv-x="302" 
d="M68 864l46 -3q-3 -15 1.5 -166.5t8.5 -151.5q-3 0 -45 4.5t-48 4.5q-1 1 -1 3q0 12 19 143t19 159v7zM216 868l46 -3q-3 -15 1.5 -166.5t8.5 -151.5q-3 0 -45 4.5t-48 4.5q-1 1 -1 3q0 12 19 143t19 159v7z" />
    <glyph glyph-name="quotedblright" unicode="&#x201d;" horiz-adv-x="302" 
d="M234 547l-46 3q3 15 -1.5 166.5t-8.5 151.5q3 0 45 -4.5t48 -4.5q1 -1 1 -3q0 -12 -19 -143t-19 -159v-7zM86 543l-46 3q3 15 -1.5 166.5t-8.5 151.5q3 0 45 -4.5t48 -4.5q1 -1 1 -3q0 -12 -19 -143t-19 -159v-7z" />
    <glyph glyph-name="quotedblbase" unicode="&#x201e;" horiz-adv-x="302" 
d="M234 -85l-46 3q3 15 -1.5 166.5t-8.5 151.5q3 0 45 -4.5t48 -4.5q1 -1 1 -3q0 -12 -19 -143t-19 -159v-7zM86 -89l-46 3q3 15 -1.5 166.5t-8.5 151.5q3 0 45 -4.5t48 -4.5q1 -1 1 -3q0 -12 -19 -143t-19 -159v-7z" />
    <glyph glyph-name="ellipsis" unicode="&#x2026;" horiz-adv-x="591" 
d="M30 40q0 29 22 51.5t53 22.5q27 0 44.5 -17t17.5 -42q0 -20 -12.5 -35.5t-32.5 -21.5q-14 -7 -19 -7h-4q-43 0 -62 30q-7 14 -7 19zM227 40q0 29 22 51.5t53 22.5q27 0 44.5 -17t17.5 -42q0 -20 -12.5 -35.5t-32.5 -21.5q-14 -7 -19 -7h-4q-43 0 -62 30q-7 14 -7 19z
M424 40q0 29 22 51.5t53 22.5q27 0 44.5 -17t17.5 -42q0 -20 -12.5 -35.5t-32.5 -21.5q-14 -7 -19 -7h-4q-43 0 -62 30q-7 14 -7 19z" />
    <glyph glyph-name="guilsinglleft" unicode="&#x2039;" horiz-adv-x="338" 
d="M30 297q118 62 278 222v-103l-159 -112q53 -51 159 -107v-67q-234 153 -278 167z" />
    <glyph glyph-name="guilsinglright" unicode="&#x203a;" horiz-adv-x="338" 
d="M308 297q-44 -14 -278 -167v67q106 56 159 107l-159 112v103q160 -160 278 -222z" />
    <glyph glyph-name="Euro" unicode="&#x20ac;" horiz-adv-x="611" 
d="M52 463l-6 59q3 -6 61 -9q34 117 105.5 197.5t175.5 80.5q19 0 39.5 -4.5t39.5 -18t19 -34.5q0 -11 -9.5 -23.5t-20.5 -12.5t-36.5 15t-43.5 15q-45 0 -84 -55t-52 -161q144 4 171 9l5 -58q-88 6 -180 8q-2 -40 1 -109q74 4 89 7l4 -56q-19 2 -50 3.5t-40 2.5
q3 -36 11 -88q3 -27 11.5 -63t28 -71.5t43.5 -35.5q65 0 104.5 28.5t48.5 60.5q4 8 4 21q4 28 4 67q2 19 10 26.5t25 7.5q14 0 32.5 -16t18.5 -39q0 -101 -77 -159.5t-173 -58.5q-59 0 -106.5 29t-76.5 77t-45 102t-19 111l-46 -5h-3l-5 57q3 -6 54 -9q2 34 2 49q3 27 9 57
l-39 -4h-4z" />
    </font>
</defs>
</svg>
